<svg xmlns="http://www.w3.org/2000/svg" xmlns:xlink="http://www.w3.org/1999/xlink" viewBox="0 0 453.53 286.21"><defs><style>.cls-1{fill:#ff7bac;}.cls-1,.cls-10,.cls-2,.cls-3,.cls-4,.cls-5,.cls-6{stroke:#000;stroke-miterlimit:10;}.cls-2{fill:#f0f;}.cls-3{fill:#ed1e79;}.cls-4{fill:url(#linear-gradient);}.cls-5{fill:url(#linear-gradient-2);}.cls-6{fill:url(#linear-gradient-3);}.cls-10,.cls-7{fill:none;}.cls-10,.cls-8{isolation:isolate;font-size:48px;font-family:BrushScriptMT, Brush Script MT;}.cls-9{letter-spacing:-0.01em;}</style><linearGradient id="linear-gradient" x1="270.02" y1="410.35" x2="426.02" y2="410.35" gradientTransform="matrix(1, 0, 0, -1, 0, 586.71)" gradientUnits="userSpaceOnUse"><stop offset="0" stop-color="#ff7bac"/><stop offset="1" stop-color="#ff7bac" stop-opacity="0"/></linearGradient><linearGradient id="linear-gradient-2" x1="0.16" y1="405.73" x2="156.16" y2="405.73" xlink:href="#linear-gradient"/><linearGradient id="linear-gradient-3" x1="109.16" y1="545.73" x2="265.16" y2="545.73" xlink:href="#linear-gradient"/></defs><title>Asset 1</title><g id="Layer_2" data-name="Layer 2"><g id="Layer_1-2" data-name="Layer 1"><path class="cls-1" d="M163,80.38c-49.43,0-89.5,35.37-89.5,79s40.07,79,89.5,79,89.5-35.37,89.5-79S212.38,80.38,163,80.38Zm0,152c-46.67,0-84.5-32.68-84.5-73s37.83-73,84.5-73,84.5,32.68,84.5,73S209.62,232.38,163,232.38Z"/><ellipse class="cls-1" cx="162.02" cy="159.86" rx="76.5" ry="66.51"/><path d="M112.18,184.88c1.26-.75,2.54-1.46,3.78-2.26,1.81-1.18,3.6-2.41,5.36-3.72a16.08,16.08,0,0,1,6.27-2.74,3.93,3.93,0,0,0,.54-.2l2.76-.61a3.18,3.18,0,0,1,.19.75c.3.86,1.07,1,1.56.27a16.11,16.11,0,0,1,3.82-3.9,17.39,17.39,0,0,0,4-4.35c.78-1.14,1.66-2.52,3.23-2.16.36.08.73.12.94.5a6,6,0,0,1,.94,3.68,2.22,2.22,0,0,1-.56.81c-.18.14-.36.24-.58.09-.11-.77-.11-1.57-.29-2.33-.28-1.19-.63-1.36-1.54-.75a6.08,6.08,0,0,0-1.91,2.27,5.88,5.88,0,0,1-1.76,2,9.34,9.34,0,0,0-2.15,2.11c-.17.24-.47.48-.26.83s.5.11.76.07c.49-.09.89-.73,1.45-.31,0,.48-.27.61-.54.74-.6.3-1.16.7-1.75,1a4.93,4.93,0,0,1-.73.27c-1.68.63-3.44.77-5.11,1.55-2.2,1-4.54,1.54-6.79,2.42a6.54,6.54,0,0,0-1.3.58l-.22.13a12.82,12.82,0,0,0-3.69,1.69,21.82,21.82,0,0,1-2.45,1c-.89.34-1.62,1.12-2.65,1.62.39.15.55-.08.73-.13a.69.69,0,0,1,.35,0c.43.08.51.41.41.86a2.14,2.14,0,0,0-.1,1.15c.11.57-.64.83-.35,1.46a.4.4,0,0,1-.28.26c-.46,0-.52-.4-.59-.8.12-1.06-.7-1.71-.79-2.68,0-.06-.11.06-.18,0C112.29,185.89,112.21,185.4,112.18,184.88Z"/><path d="M145.48,170.2a7.18,7.18,0,0,0-.82-3.35,1.84,1.84,0,0,0-2.62-.2,23.75,23.75,0,0,0-2.28,2.91,7.59,7.59,0,0,1-2.56,2.6c-1.3.9-2.31,2.2-3.55,3.16a2.61,2.61,0,0,0-.76,1.14c-.28.69-.72.93-1.34.58a1.22,1.22,0,0,1-.65-1.69,28.55,28.55,0,0,0,3.29-2.38,29.55,29.55,0,0,0,3.51-3.64c1.44-1.64,2.89-3.27,4.34-4.91,1.58-.44,2.9.34,3.6,2.15a5.43,5.43,0,0,1,.55,2.65C146.13,169.73,146.06,170.25,145.48,170.2Z"/><path d="M167.25,132.56a6.23,6.23,0,0,1,.22,4.76c-1.11-.25-1.85.25-2.44,1.64-.08.2-.08.46-.27.58a.31.31,0,0,1-.34-.08c-.23-.44-.58-.41-.95-.35a2.37,2.37,0,0,1-2.45-1.4,13.53,13.53,0,0,1-1.52-4.32,8.25,8.25,0,0,0-.91-2.87c-.4-.36-.34-1-.52-1.44-.35-.89-.58-1.89-1.47-2.25a.86.86,0,0,1-.13-.23c0-.66-.47-1.1-.67-1.67-.12-.35-.42-.77-.07-1.07s.69.16.85.47c.65,1.26,1.44,2.39,2.09,3.65.16.32.27.65.66.48a1,1,0,0,1,.52.83c.4,2.11,1,4.13,1.48,6.23A3.86,3.86,0,0,0,162,137c.62.81,1.45.75,1.86-.28a2.42,2.42,0,0,1,1.56-1.56,1.2,1.2,0,0,0,.86-1.29C166.91,133.82,166.91,133,167.25,132.56Z"/><path d="M182.55,164.84a34,34,0,0,1-.51,7.55,12.68,12.68,0,0,1-.9-2.6,9,9,0,0,0-3.37-4.58.41.41,0,0,1-.2-.33,9.06,9.06,0,0,0,.36-1.56c.06-.36.09-.78.48-.9s.08.89.56.37c.14-.4-.09-1,.46-1.17a11.12,11.12,0,0,1,2.33,1.63A4.65,4.65,0,0,1,182.55,164.84Z"/><path d="M169.06,143.64a7.79,7.79,0,0,1,1.33,2.21c.19.47-.12.51-.35.52-.5,0-.56.38-.57.86a3.23,3.23,0,0,0,.55,1.82c.91,1.48,2.07,2.71,2.9,4.27a6.24,6.24,0,0,1,.8,1.71.39.39,0,0,1-.39.29c-.44,0-.48-.49-.62-.84a14.05,14.05,0,0,0-1.53-2.29c-.77-1.06-1.59-2.07-2.27-3.22a3.65,3.65,0,0,0-1.21-1.43,6.14,6.14,0,0,1-2.18-2.15,2.75,2.75,0,0,1-.25-.89,10.25,10.25,0,0,1,.09-2.82c.07-.26,0-.54.1-.8s.25-.8.67-.86a1.39,1.39,0,0,1,.07,1.47,3.43,3.43,0,0,0,.72,3.86,1.25,1.25,0,0,1,.39-1.52A1.36,1.36,0,0,1,169.06,143.64Z"/><path d="M173.71,155a6.14,6.14,0,0,1-1.26-1.93c-.76-1.44-1.88-2.5-2.66-3.89a3.06,3.06,0,0,1-.54-1.6c0-.78-.22-1.81,1-1.39,0,0,.11-.19.17-.3.77.89,1,2.17,1.48,3.24q1.4,2.91,2.77,5.84A.58.58,0,0,1,173.71,155Z"/><path d="M173.71,155l.93,0c.21.19.48.29.66.7a2,2,0,0,0-1.31.08.51.51,0,0,0,.16.67c.31.2.55.52.86.74a2.89,2.89,0,0,1,1.23,3.17,1,1,0,0,1-.6.85c-.24,0-.38-.19-.55-.33-.38-.33-.51-.06-.59.35-.06.19-.14.35-.33.38-.91-.35-1.12-1.32-1.39-2.25s0-2-.15-3.07a1.65,1.65,0,0,1,.19-.73c.11-.26.35-.22.53-.35S173.59,155,173.71,155Z"/><path d="M165.64,128a11.26,11.26,0,0,0,.66,2.39c.38.86.38.85-.24,1.72-.05.07.05.38,0,.57s-.11.48-.35.46-.29-.25-.33-.49c-.09-2.57-.75-5-1-7.57-.06-.59-.34-1.09-.44-1.68a16.71,16.71,0,0,1,.13-4.3c.11-1.15,0-2.3,0-3.45s-.23-2.27.57-3.16c.6.6.42,1.48.48,2.23a47.63,47.63,0,0,1-.21,4.92,37.13,37.13,0,0,0,.53,6.92A6.93,6.93,0,0,0,165.64,128Z"/><path d="M169.06,143.64c-.55.08-1.12-.1-1.62.37s-.68.7-.21,1.25c.12.14.24.31.11.51s-.37.08-.5-.05a3.78,3.78,0,0,1-1-4,3.62,3.62,0,0,0,.26-1.68,1.2,1.2,0,0,1,.47-1.18c.08,0,.14,0,.19.09a8.1,8.1,0,0,0,1.67,3.81A3.3,3.3,0,0,1,169.06,143.64Z"/><path d="M175.65,161.08a2.71,2.71,0,0,0-.81-3.8,4.83,4.83,0,0,1-1.06-1c-.37-.4.07-.43.22-.58.46,1,1.37,1.26,2,2s1.29,1.4,2,2a2.25,2.25,0,0,0,.46.32c.19.31.58.49.47,1-.09.2-.26.29-.4.43a8.81,8.81,0,0,0-1.07,1.81c-.19,0-.26-.16-.31-.34-.15-.47.29-1.3-.56-1.34A2,2,0,0,1,175.65,161.08Z"/><path d="M165.64,128a48.09,48.09,0,0,1-.82-6,26.07,26.07,0,0,1,.14-6.18,9.69,9.69,0,0,0-.29-3.3.51.51,0,0,1-.16-.24,5.75,5.75,0,0,1-.16-1.71.46.46,0,0,1,.17-.24c.45.57.14,1.4.47,2v.19a36.64,36.64,0,0,1,.33,3.77c.07,1.77-.13,3.52-.23,5.29a23.45,23.45,0,0,0,.45,4.86A9.93,9.93,0,0,1,165.64,128Z"/><path d="M164.83,139.45a.89.89,0,0,1,.2-1,4.86,4.86,0,0,0,.83-1.07c.46-.63,1-.62,1.61,0a3.3,3.3,0,0,1-.69,1.61.43.43,0,0,0,0-.11c-.4-.09-.6,1.06-1.11.25-.11.21-.12.49-.33.63S164.94,139.69,164.83,139.45Z"/><path d="M165.47,132.75l.23.23c.18-.88,1-1.55.6-2.62.59.56.6,1.49,1,2.21,0,.06-.07.12-.07.17.15,1.22.15,1.22-.89,1.17a2.16,2.16,0,0,1-1.06-.47.78.78,0,0,1-.32-1.06C165.27,132.14,165.38,132.41,165.47,132.75Z"/><path d="M178.43,160.06a3.57,3.57,0,0,1-1.93-1.5,9.34,9.34,0,0,1-.5-.87c.77-.12,1.22.78,1.93.87.18,0,.2.32.15.5C177.92,159.56,178.21,159.79,178.43,160.06Z"/><path d="M178.41,161.24c.1-.29.32-.12.48-.17.17.18.34.37.52.55-.43.39.06,1.09-.35,1.48-.7.09-.46-.75-.72-1.09A2.24,2.24,0,0,1,178.41,161.24Z"/><path d="M165.31,116.27a31.61,31.61,0,0,1-.33-3.77A11.11,11.11,0,0,1,165.31,116.27Z"/><path d="M176.11,156.25a.63.63,0,0,1-.54-.7c0-.13.1-.29.2-.21A1.05,1.05,0,0,1,176.11,156.25Z"/><path d="M144.63,160.27a19.16,19.16,0,0,1,1.21-4.33c.92.61.92.61,1.06-.76.11-1.07,1.26-2,2.12-1.79.33.1.42.4.44.74s0,.94-.4,1.19-.93.12-.79.75.7.28,1.08.33a1.34,1.34,0,0,1,.4.06c1.44,2.31,3,4.5,4.38,6.87.37.64.31.94-.27,1.32a2.48,2.48,0,0,1-1.35.3,7.66,7.66,0,0,0-2.52.19c-.83-.43-1.37-1.36-2.15-1.87a11.24,11.24,0,0,1-1.08-1.19,2.89,2.89,0,0,0-1.36-1A1.43,1.43,0,0,1,144.63,160.27Z"/><path d="M154.83,106a1.16,1.16,0,0,1,.63-.62c.84,0,1.42.94,2.29.89.28,0,.31.43.16.61a8.08,8.08,0,0,0-1.12,3.15,2.37,2.37,0,0,1-.23.3,13.23,13.23,0,0,0-.92,1.45c-.18.27-.32.6-.65.65-1-.21-1.16,0-.86,1.2.06.21.12.43.19.63.1.77.79.72,1.11,1.19a1.41,1.41,0,0,1,.13.24,5.46,5.46,0,0,1-.79,5.39,2,2,0,0,1-.13.25,3,3,0,0,1-1.25,1.26,1,1,0,0,1-.23.12c-.25.06-.51.18-.71-.14a15.67,15.67,0,0,1,.4-4c.28-1.59.19-3.21.4-4.8a18.15,18.15,0,0,1,.33-2.33,3.73,3.73,0,0,0,.14-2.22,1,1,0,0,1,.09-.76C154.19,107.64,154.44,106.76,154.83,106Z"/><path d="M152.86,149.78c0-.55-.4-.49-.65-.56a38.81,38.81,0,0,1-11.28-5.7,1.85,1.85,0,0,1-.78-2.12,17.66,17.66,0,0,1,2.69-5.94,13.56,13.56,0,0,1,2.29-3.2c.36.68-.36.93-.39,1.46a13.7,13.7,0,0,1-1.21,2,23.54,23.54,0,0,0-1.84,3.61,2.52,2.52,0,0,0-.22,1.34c.06.69.3,1.22,1,1.17a1.57,1.57,0,0,1,1.33.63,19.5,19.5,0,0,0,5.1,4.1,26,26,0,0,0,4.94,2.55c.13.2,0,.37-.06.54a2.42,2.42,0,0,1-.48.48C153,150.3,152.82,150.21,152.86,149.78Z"/><path d="M152.86,149.78c.4.73.47-.5.8-.2.35.46.4,1.12.72,1.6-.36.77-.72.32-1.08,0a1.4,1.4,0,0,0,.35,1.31,6.59,6.59,0,0,1,.1,1.66c.06,1,.46,1.27,1.19.88.28-.15.51-.25.69.13a.88.88,0,0,1-.15,1.06c-.84.92-2.35.29-2.67-1.1-.19-.86-.15-1.76-.27-2.62-.06-.18,0-.4-.2-.59-.29.51-.59,1-1.14,1.13-.37.09-.41.48-.41.86a5.37,5.37,0,0,1-.28,1.84c-.14.41-.27.9-.78.81a1.4,1.4,0,0,1-.95.2c-.4,0-.88.12-.91-.62s.29-1,.8-1c.35,0,.55-.1.57-.6,0-.92-.06-1-.8-.77-1.28.47-1.31.53-1.34,1.89,0,.45.19,1.08-.4,1.23s-.67-.51-.88-.94a6.89,6.89,0,0,1,4.36-4.12A5.68,5.68,0,0,0,152.86,149.78Z"/><path d="M145.48,170.2c.72-.44.6-1.29.44-1.92-.36-1.48-.78-3-2.22-3.53-.44-.17-.84-.49-1.3-.07-.24.22-.34,0-.38-.24a9.46,9.46,0,0,1,1.48-1.77c.65-.3,1,.21,1.34.74a24.17,24.17,0,0,1,1.95,4.54,2.26,2.26,0,0,1,.07,1.34c-.19.74.1,1.2.74,1.2a1.56,1.56,0,0,0,1.05-.47,22.15,22.15,0,0,1,2.37-2.09,2.32,2.32,0,0,0,.86-1.36c.56-.07.74.28.64.88a2.45,2.45,0,0,1-.52,1.21,25.09,25.09,0,0,1-4.26,4.06,5,5,0,0,1-1.13.57.85.85,0,0,1-1.05-.3,2.79,2.79,0,0,1-.59-2.19A1.33,1.33,0,0,1,145.48,170.2Z"/><path d="M151.87,166.63c.45,1.14-.5,1.36-.92,1.67-.79.6-1.47,1.33-2.2,2a1.39,1.39,0,0,1-2.23-.17c-.18-.25-.22-.46,0-.67a1.23,1.23,0,0,0,.13-1.35,29.08,29.08,0,0,0-2-4.72,1.62,1.62,0,0,0-1.11-.74l1-1.82a3.75,3.75,0,0,1,1.62,2.57c.14.67.35,1.32.46,2,.2,1.3,1.14,1.94,1.71,2.9.13.23.35,0,.5-.13.9-.6,1.83-1.15,2.71-1.8A.34.34,0,0,1,151.87,166.63Z"/><path d="M154.83,106a4.84,4.84,0,0,1-.47,1.76,2,2,0,0,0-.26,2.06c.25.52-.24,1.23-.34,1.88a44.83,44.83,0,0,0-.42,5.19c0,1.31-.41,2.63-.56,4-.07.62-.16,1.23-.24,1.84a.32.32,0,0,1,0,.27c-.32.23-.54.79-1,.48a58,58,0,0,1,.72-6.85c.41-2.19.77-4.38,1-6.6A7,7,0,0,1,154.83,106Z"/><path d="M151.55,166.43a12.58,12.58,0,0,1-3.33,2.36c-.08.05-.38.05-.29-.15.37-.8-.28-.71-.53-1a5.23,5.23,0,0,1-1.09-2.27,15.39,15.39,0,0,1-.44-2c-.12-1.15-1-1.63-1.4-2.54,0-.2-.05-.44.15-.57a8.55,8.55,0,0,1,3.31,2.79c-.35.35-.61,0-.87-.19a7.61,7.61,0,0,0-.95-.81c.33,1.06.68,1.94.91,2.88.09.39.35.74.7.74a6,6,0,0,0,2.47-.32c.42-.18.66.22,1,.43S151.6,166.05,151.55,166.43Z"/><path d="M151.48,123.41c.42,0,.61-.63,1.05-.61.08,1-.64,1.5-1.16,2a6.36,6.36,0,0,0-1.49,2.29,19.1,19.1,0,0,1-3.56,5c-.31.37-.65.7-.94,1.1-.19.25-.36.64-.73.34-.07-.55.61-.68.48-1.26a41.28,41.28,0,0,0,3.11-4.78,11.69,11.69,0,0,1,2.62-3.19A2.26,2.26,0,0,0,151.48,123.41Z"/><path d="M156.62,109.9c0-.06.08-.11.08-.17a4.44,4.44,0,0,1,1.43-3.33c-.93,0-1.62.18-2-.71,0,0-.21,0-.28,0-.51.43-.37-.12-.41-.39a1.78,1.78,0,0,1,1.15-.6c.69-.17,1.38-.44,1.79.65.14.37.58.26.9.31s.58.12.61.51-.26.54-.53.6c-.45.1-.74.52-1.08.83a5.15,5.15,0,0,0-.73,1.42c-.14.42-.31.86-.75,1A.41.41,0,0,1,156.62,109.9Z"/><path d="M158.09,107.53c.41-.45.77-1,1.4-1a.27.27,0,0,0,.29-.27.27.27,0,0,0-.28-.27c-.24,0-.49,0-.73,0s-.61,0-.64-.31c-.12-1.32-1-.75-1.52-.91a.52.52,0,0,1,.48-.2,11.67,11.67,0,0,1,3.54.15c.2.18.12.32-.06.41s-.48-.1-.67.09a1.16,1.16,0,0,1,1.34.53,4.69,4.69,0,0,0,1.22,1.1.48.48,0,0,1,.09.55.4.4,0,0,1-.25.09,5.27,5.27,0,0,0-3-.07C158.91,107.34,158.54,107.91,158.09,107.53Z"/><path d="M160.72,105a10.13,10.13,0,0,0-3.62-.42,6.26,6.26,0,0,1,6.18,1.69c1,1,1,2.62,1.23,4.07,0,.07,0,.15,0,.22a.2.2,0,0,1-.22,0c-.42-.72-.29-1.63-.57-2.39a2.55,2.55,0,0,0-1.83-2.19A1.59,1.59,0,0,1,160.72,105Z"/><path d="M177.76,165.06a.87.87,0,0,1,.77.22A12.84,12.84,0,0,1,182,172.4,70.28,70.28,0,0,1,181,182.57a45.06,45.06,0,0,0-.58,8.84c-.44.46-.91.32-1.39.13a4,4,0,0,1-.53-2.34,17.52,17.52,0,0,0-.59-5.35,4.87,4.87,0,0,1-.15-2.34,9.34,9.34,0,0,0-.1-2.94,20.79,20.79,0,0,1,.26-8.13,4.29,4.29,0,0,0-.41-3.19A1.52,1.52,0,0,1,177.76,165.06Z"/><path d="M178.92,191.4h1.46l.16.23v.56c0,.41-.23.77-.25,1.2a.71.71,0,0,1-.61.75c-.62-.23-.44-.82-.35-1.3s.18-.82-.36-.93c-.79-.17-1.22,0-1.31.62a17.16,17.16,0,0,0-.15,1.76c0,.53-.12,1.07-.68,1.16-1-.24-1.68-1.51-1.63-3,.09-.21.28-.32.41-.5.22-.33.09-.85.43-1.11a.77.77,0,0,1,.86,0,2.06,2.06,0,0,0,1.18.25C178.39,191.14,178.7,191.1,178.92,191.4Z"/><path d="M179.72,194a.6.6,0,0,0,.4-.78.88.88,0,0,1,.42-1c.84-.81,1.32-.64,1.46.63.12,1,.89,1.31,1.33,2-.3.36-.64,0-1,.06a1.26,1.26,0,0,0,.52.35c.5.17.39.59.18.91-.8,1.22-.72,1.54.55,2,.11,0,0-.19,0-.06s0,0-.07,0a1,1,0,0,1-.47-.16,1,1,0,0,1-.46-1.38c.2-.6.63-.28,1-.19a.83.83,0,0,1,.39.36c-.39-.6-.9-1.08-.69-2,.63.45,1.11,1.2,1.9,1.24,0,.44-.36.29-.46.61.46.1.55,1,1.19.74.49.39,1,.8,1.48,1.15.19.13.32.21.22.5s-.06.5.14.59c.36.14.22-.32.35-.47a1,1,0,0,1,.27-.18c.7,0,.58.6.53,1.13a1.51,1.51,0,0,1-1.63,1.33c-1.29-.19-2.58-.49-3.87-.71-1-.17-1.85-1.06-2.82-1.52a1.08,1.08,0,0,0-1.36.12c-.8.69-1.77.15-2-1a10.72,10.72,0,0,1-.27-2.53.4.4,0,0,1-.11-.38C177.93,195.1,178.73,194.25,179.72,194Z"/><path d="M176.79,201.3a6.49,6.49,0,0,0-2-.18c-.36-.13-.83.31-1.09-.32l-.21-.07c0-.81.38-.81.85-.68a4,4,0,0,0,1.66.4c1.53.25,3.08.31,4.61.46,1.29.13,2.59.2,3.89.31a5.49,5.49,0,0,1,1.14.1c.51.31,1.16-.14,1.62.44a15,15,0,0,1-3.9.09C181.19,201.75,179,201.23,176.79,201.3Z"/><path d="M187.28,201.14a1.29,1.29,0,0,0,1.49-1.18c.15-.3.31-.52.48,0-.24.74-.15,1.8-1.17,1.76a8,8,0,0,0-1.69-.08c-.18,0-.48.13-.41-.34C186.39,200.92,186.87,201.47,187.28,201.14Z"/><path d="M189.25,200c-.17-.28-.32-.08-.48,0,.09-.44.06-.82-.34-1,.49-.44.71.1,1,.4S189.44,199.81,189.25,200Z"/><path d="M186,201.34c.52.43,1.08.06,1.62.13.19,0,.44-.21.48.24l-.78,0c-.55-.23-1.17.25-1.69-.26C185.66,201.23,185.79,201.21,186,201.34Z"/><path d="M113.17,190.42c.66.36.13,1.09.34,1.59a3.56,3.56,0,0,0,.18,2.28c0,.09.18.26.13.3-.93.77.35,1.59,0,2.36-.25-.28-.18-.76-.42-1.17a1.92,1.92,0,0,0,.25,1.8,2.41,2.41,0,0,1,.23,1.2.47.47,0,0,1-.39.27,4,4,0,0,1-2-2.11,1.37,1.37,0,0,1,0-1.47.46.46,0,0,0,.11-.26c-.2-1.51.64-2.78.69-4.23C112.46,190.5,112.75,190.31,113.17,190.42Z"/><path d="M113.52,199a.27.27,0,0,1,.31-.17,1.84,1.84,0,0,1-1.3,2.55l-1.33,0c-.14-.11-.26-.23-.12-.45.32-.25.68-.15,1-.21C113,200.5,113.38,200,113.52,199Z"/><path d="M173.74,200.8l1.09.32C174,201.75,173.86,201.69,173.74,200.8Z"/><path d="M105.81,200.93c-.12-.33,0-.41.25-.39.71.06,1.29-.58,2-.52.12,0,.27-.21.29-.51-.75.35-.92-.25-1.08-1l1,.19c.76.6,1.65,1,2,2.18-.21.39-.65,0-.86.41A27.47,27.47,0,0,1,105.81,200.93Z"/><path d="M109.42,201.33c-.11-.26-.08-.43.2-.42h.63a.5.5,0,0,1,.81,0l.14.38Z"/><path d="M111.06,200.93l-.81,0c-.52-.91-1.48-1.22-2-2.17l-.18-.58c-.08-.13-.23-.28-.22-.4a3,3,0,0,0-1.41-2.61,6.62,6.62,0,0,1-1.14-2,.91.91,0,0,1,.14-1,1.32,1.32,0,0,0-.06-1.53,5.74,5.74,0,0,0-1.73-1.77c-.33-1.45-.25-1.6,1-1.57a1.33,1.33,0,0,0,1.22-.55c.39-.48.86-1.13,1.58-.51.12.1.41-.09.62-.14.48.08.7.48.83,1a3.31,3.31,0,0,0,.63,2.83,2.37,2.37,0,0,0,2.15,1c.21,0,.42-.1.62.08.46.15.38.39.14.77s-.44.87.15,1.3c-.87.1-.77.8-.74,1.48a1.87,1.87,0,0,1-.29,1.31c-.39.54,0,1.3.36,1.61.51.5.88,1.25,1.56,1.5a1.28,1.28,0,0,1-.71,1.78A4.29,4.29,0,0,1,111.06,200.93Z"/><path d="M109.4,190.06a2.93,2.93,0,0,1-.62-3c.12-.59.08-1.31.79-1.42.93,0,1.73-.57,2.61-.79.38.28.26.95.65,1.23a11.11,11.11,0,0,1,.82,1.74c-.15,1.52-1.56,2.46-2.58,1.68a.74.74,0,0,0-1.16.09C109.75,189.78,109.63,190,109.4,190.06Z"/><path d="M103.69,188.83a.7.7,0,0,1,.74.19,9.74,9.74,0,0,1,1.3,1.61,1.31,1.31,0,0,1,0,1.6c-.17.24-.51.46-.28.82.56.85.79,2,1.8,2.44a1.43,1.43,0,0,1,.77,1.72c-.07.37.11.63.11,1-.64-.1-.89-.62-1.14-1.3a18.82,18.82,0,0,0-1.63-3.27A30.91,30.91,0,0,1,103.69,188.83Z"/><path d="M109.57,185.66c-.44.33-.45,1-.79,1.42-.1-.46-.5-.63-.67-1a4.18,4.18,0,0,1,1-1c.14-.13.33-.26.51,0S109.64,185.46,109.57,185.66Z"/><path d="M129.58,182.93c-1.09.3-2.05,1-3.11,1.38-3.38,1.49-6.94,2.31-10.28,4-.49.13-.56-.18-.33-.58.59-1.06,1.11-2.15,2.29-2.52a14.89,14.89,0,0,0,2.48-1.5,13.11,13.11,0,0,1,4-1.58,7.94,7.94,0,0,0,2.6-1.4.73.73,0,0,0,.33-.42c.22-.92.84-1.05,1.5-1.27,2.25-.76,4.51-1.43,6.74-2.26a.94.94,0,0,1,.66-.2c.26.41.26.41-.16.88a6,6,0,0,1,3.49-.29c.79.15.91.66.44,1.39l-3.41,2a1.53,1.53,0,0,0-1,.37,14.13,14.13,0,0,1-2.62,1A17.68,17.68,0,0,0,129.58,182.93Z"/><path d="M140.23,178.53c.23-.89.11-1.13-.73-1.18a7.25,7.25,0,0,0-3.72.55c0-.72.94-.54.68-1.36.64-.79,1.63-.84,2.3-1.59a5.75,5.75,0,0,1,1.85-1.37,38.22,38.22,0,0,0,3.36-2.4.64.64,0,0,1,.53-.2l.49-.2c0,.6.57.93.47,1.67a.86.86,0,0,0,1.19.56,18.6,18.6,0,0,0,3-2.15c.89-.66,1.48-1.72,2.32-2.46a1.11,1.11,0,0,0-.05-1.78l-.32-.21-.5-.4c-.15-.29,0-.49.2-.44a10.52,10.52,0,0,1,3.43,1.36.42.42,0,0,1,.14.51.37.37,0,0,1-.39,0,1.2,1.2,0,0,0-1.42.49,51.11,51.11,0,0,1-12.1,10.29A2.9,2.9,0,0,1,140.23,178.53Z"/><path d="M135.81,176.75a8.94,8.94,0,0,1-2.57,1.15c-1.42.53-2.89.84-4.33,1.28-.49.15-1,.26-1,1.15a.63.63,0,0,1-.28.45c-1.18.7-2.26,1.63-3.67,1.77a7,7,0,0,0-2.42.92,42.32,42.32,0,0,1-4.16,2.41,1.13,1.13,0,0,0-.59.64,3.88,3.88,0,0,1-.78,1.37c-.31.28,0,.33.18.4a3.18,3.18,0,0,1-1,.62c-.35-.23,0-.79-.34-1s-.08-.57-.07-.88.49-.7-.09-.91c.38-.85,1.11-1,1.66-1.24a5.71,5.71,0,0,0-2,1.24c-.3.07-.32.79-.77.49a.65.65,0,0,1-.2-.61c0-.2,0-.46.25-.38.4.15.63-.2.87-.4a12,12,0,0,1,3.47-1.69c1.17-.46,2.17-1.42,3.39-1.77a3.42,3.42,0,0,1,1-.2c0,.63-.47.66-.79.82-1.19.61-2.36,1.27-3.19,1.62,1.46-.67,3.27-1.63,5.07-2.62-.36.1-.68.6-1.1.18.15-.44.53-.44.82-.56,2.42-1.05,5-1.53,7.37-2.65A38,38,0,0,1,135.81,176.75Z"/><path d="M144.5,171a25.63,25.63,0,0,1-5.74,4c-.65,0-1.13.6-1.77.7a.6.6,0,0,1-.76-.34.75.75,0,0,1,.18-.88A10.31,10.31,0,0,1,139,172c1.09-.64,1.55-2,2.3-3a6,6,0,0,1,1.9-1.62.55.55,0,0,1,.85.29A4.93,4.93,0,0,1,144.5,171Z"/><path d="M109.4,190.06c.6-1.32.94-1.42,2-.56.21.17.41.3.67.14a2.49,2.49,0,0,0,1.47-1.78c.41,0,.3.47.36.76s0,.78.46.85a3.44,3.44,0,0,0-1.16.94l-.83.57C111.4,191.52,110.27,191.17,109.4,190.06Z"/><path d="M114.33,186.07a3,3,0,0,1,2.91-1.42,8.92,8.92,0,0,0-2.58,1.42Z"/><path d="M114.82,187.85c.62.1.2.71.34,1a1.18,1.18,0,0,1-.66.4c-.08-.37-.16-.74-.25-1.14C114.49,188.09,114.92,188.6,114.82,187.85Z"/><path d="M113.87,188.63l-.36-.76c-.19-.61-.68-1-.68-1.76,0-.09.12-.32.15-.22a16.5,16.5,0,0,1,1,2.5C114,188.45,113.91,188.54,113.87,188.63Z"/><path d="M165,132.36c-.05.49.1.81.51.94a1.16,1.16,0,0,1,.8.6c.19.76.32,1.3-.66,1.49a1.71,1.71,0,0,0-1.56,1.4c-.12.57-.47,1.18-1.19,1.1a1.63,1.63,0,0,1-1.4-1.16,18.65,18.65,0,0,1-1.06-4,7.88,7.88,0,0,0-.43-1.57,2.32,2.32,0,0,1-.3-1.47,1.44,1.44,0,0,0-.44-1.11c-.13-.08-.24-.22-.14-.37s.41-.22.65-.12.54.63,1,.61a1,1,0,0,1,.81.36,8.16,8.16,0,0,0,2.13,2.06,2.1,2.1,0,0,1,.24.27,3.6,3.6,0,0,0,.51.59,1,1,0,0,0,.27.14A.39.39,0,0,1,165,132.36Z"/><path d="M160.73,129c-.41.08-.61-.31-.89-.54s-.53-.69-.58.15c0,.2,0,.44-.23.46s-.33-.22-.39-.43c-.48-1.52-1.6-2.54-2.14-4-.1-.28-.42-.44-.71-.73-.07,1.17,1,1.7.84,2.76-.37,0-.41-.44-.64-.63a1.43,1.43,0,0,1-.14-.2c-.37-.81-.63-1.72-1.41-2.14a2.18,2.18,0,0,1-.19-.48c-.12-.28-.35-.22-.54-.27s-.5,0-.5-.43a.47.47,0,0,1,.15-.06c.38-.2.87-.13,1.13-.65a.61.61,0,0,1,.7.08,11.88,11.88,0,0,1,1.08,1.05,15.29,15.29,0,0,1,2,2.26c.7,1.19,1.7,2,2.45,3.18A.78.78,0,0,1,160.73,129Z"/><path d="M158.27,129c.29.4,0,1.11.49,1.39a14,14,0,0,0,1,3c.52,2,.84,4.16,2.54,5.35a1.58,1.58,0,0,0,1.5.11c.59-.21.75.06.72.7,0,.29-.14.32-.31.37a.71.71,0,0,1-.25,0,5,5,0,0,1-2.12-.56c-1.22-.88-1.72-2.33-2.32-3.71a9.54,9.54,0,0,0-1.15-2.25c-.13-.57.38-1,.17-1.46a2.35,2.35,0,0,1-.26,1.25c-.09.22-.22.39-.42.12a7,7,0,0,1-.07-2.41,1.13,1.13,0,0,0,.19-1.08C157.77,129.12,157.83,129.08,158.27,129Z"/><path d="M158.27,129c-.45.51,0,.95.09,1.41,0,.19.13.41-.1.46-.08,0-.19-.19-.29-.3-.5-.42-.5-1.19-.83-1.72-.12-.69-.65-1.25-.48-2,.49-.07.81.19,1,.72S158.06,128.47,158.27,129Z"/><path d="M164.17,139.67l.32-.2.33,0,.47.24a.58.58,0,0,1,.18.29c.05,1.2-.1,1.53-.7,1.51C163.92,141.47,163.69,140.78,164.17,139.67Z"/><path d="M159.74,133.32a4.16,4.16,0,0,1-1-3C159.42,131.17,159.41,132.33,159.74,133.32Z"/><path d="M156.65,126.77c.22.65.44,1.3.65,2,.06.21,0,.27-.19.28a6.28,6.28,0,0,1-1.14-2.8.82.82,0,0,1,.1-.44c.33.13.3.61.54.83A.85.85,0,0,0,156.65,126.77Z"/><path d="M176,169.63a5.41,5.41,0,0,0-1.36-.58,6.87,6.87,0,0,0-1.06-1.92c-.25-.36-.64-.26-1-.25-1.58,0-3.15.36-4.74.26a16.59,16.59,0,0,1-6-1.23,59.24,59.24,0,0,1-5.49-2.56,7,7,0,0,1-2.41-2.47,6.76,6.76,0,0,1-.51-3.43,1.05,1.05,0,0,1,.54-.82c.43,0,.86-.24,1.26.12,0,.63-.32,1.18-.21,1.84a4.24,4.24,0,0,0,1.44,2.87,19.75,19.75,0,0,0,7.17,3.49,25.51,25.51,0,0,0,6.68.6,19.73,19.73,0,0,1,3.76.15c.47.08,1,.17,1.17-.68.12-.34.33-.34.51-.12a.49.49,0,0,0,.51.2c.29.07.49,0,.56-.42s.07-.79.49-.87a1.27,1.27,0,0,1,.33,1,1.56,1.56,0,0,0,.16.2,2.09,2.09,0,0,0,.16,2.5,3.08,3.08,0,0,1,.26,2.6,22,22,0,0,0-.13,9.53,4.05,4.05,0,0,1,0,1.47,4.65,4.65,0,0,0,.05,2.43c.72,1.83.47,3.8.68,5.7,0,.1,0,.2,0,.3,0,1.11,0,1.11.69,1.47-.09.31-.42.09-.52.35-.72-.07-1.49.29-2.15-.36a23.31,23.31,0,0,0,0-4.42c0-3.68-.15-7.36-.4-11a17.35,17.35,0,0,1,.34-4.31,3.18,3.18,0,0,1,.88-1.59A7.06,7.06,0,0,0,176,169.63Z"/><path d="M177.61,164.85a1.3,1.3,0,0,1-.32-1,.72.72,0,0,1,.13-.64,3.17,3.17,0,0,1,1-2,.74.74,0,0,1,0,.65c.08.21.15.42-.06.59a5.51,5.51,0,0,0-.35,1.57C178,164.39,178,164.79,177.61,164.85Z"/><path d="M178.38,162.48l.06-.59c.29.35.07,1.07.63,1.21,0,.23-.09.38-.29.31C178.36,163.28,178.45,162.83,178.38,162.48Z"/><path d="M165.62,141.63a13.67,13.67,0,0,0-.15,3,.44.44,0,0,0-.34.41c-.11.29,0,.62-.13.9-.61,1-.76,2.35-1.36,3.39-.88,1-1,1-1.65.2a3.58,3.58,0,0,0,0-.65.65.65,0,0,1,.15-.62,1.14,1.14,0,0,0,.19-1.25,1.78,1.78,0,0,1,.33-1.79c.29-.4.61-.74.92-1.1a5.72,5.72,0,0,0,1.46-2.59A.46.46,0,0,1,165.62,141.63Z"/><path d="M165.62,141.63l-.65,0c-1.2.25-2.42.28-3.61.61a6.41,6.41,0,0,1-2.05.08c-.18-.93.12-1.58.8-1.74a2.23,2.23,0,0,1,.89,0,2.8,2.8,0,0,0,2.23-.64,1.17,1.17,0,0,1,.77-.27h.17c.12.46-.31,1,.17,1.39s.94.17,1-.63c0-.19,0-.39,0-.58.53.14.2.67.3,1S165.63,141.37,165.62,141.63Z"/><path d="M165.65,145.41c1.15,1.53,2.9,2.13,3.85,4a29.23,29.23,0,0,0,2.87,4c.19.27.47.46.49.88-.25.14-.42-.05-.56-.23a32.28,32.28,0,0,1-2.18-2.71,4.61,4.61,0,0,0-1.26-1.77c-.89-.91-1.74-1.87-2.65-2.76C165.85,146.52,165.41,146.13,165.65,145.41Z"/><path d="M165.65,145.41c.19,1.15,1.08,1.58,1.68,2.29.81,1,1.69,1.83,2.53,2.74a1.13,1.13,0,0,1,.37.93c0,.47-.26.16-.42.12-1.31-1.33-2.5-2.81-3.72-4.26A4.43,4.43,0,0,1,165,145c0-.36,0-1,.5-.37C165.53,144.89,165.59,145.15,165.65,145.41Z"/><path d="M169.91,151.37c.11,0,.22.21.33,0,.87,1,1.75,2,2.62,3,.25.2.06.79.5.81l-.36.35c-.62-.43-.88-1.26-1.38-1.84s-.86-1-1.44-.23c-.71-.27-1.1-1-1.55-1.62a.56.56,0,0,1,0-.77C169.15,150.73,169.53,151,169.91,151.37Z"/><path d="M165.63,140.85c-.29-.25,0-.74-.3-1a.94.94,0,0,0,0-.16c.08-.35.16-.69.27-1.2.38,1.26.73.39,1.09.12,0,0,.06,0,.07,0a1.29,1.29,0,0,1,0,.19l-.65,1.2C166,140.31,165.8,140.58,165.63,140.85Z"/><path d="M168.54,151.2a7.9,7.9,0,0,0,1.7,2.12,6.53,6.53,0,0,1,2.57,2.86c.35,1-.12,2.08.18,3.08-.28.31-.58.14-.84,0-2.84-1.3-5.85-1.78-8.77-2.67A3,3,0,0,1,162,156a.94.94,0,0,1-.14-.62c.08-.78.34-1.52.43-2.29a10.72,10.72,0,0,0,.38-2,5,5,0,0,1,.83-1.94c.28-.8.55-1.61.85-2.4.13-.35.13-.87.59-.93a.47.47,0,0,1,.26.22,18.41,18.41,0,0,0,2.95,4.3A1.13,1.13,0,0,1,168.54,151.2Z"/><path d="M162.07,155.92c3.64,1.12,7.38,1.78,10.92,3.35a4.35,4.35,0,0,0,1.19,2.19c.47.23.56.7.52,1.25-.3.95-.85,1.34-1.74.87-2.54-1.35-5.28-1.52-8-2.05a2.77,2.77,0,0,1-.79-.24,22.23,22.23,0,0,0-4.08-1.69,3.54,3.54,0,0,1-1.69-1.33c-.72-.94-.66-1.34.31-1.87.22-.11.46-.11.68-.23a3.45,3.45,0,0,1,.64-.22A1.53,1.53,0,0,1,162.07,155.92Z"/><path d="M175.65,161.08a1,1,0,0,1,1,.43,3.88,3.88,0,0,1-.57,3.13.61.61,0,0,1-.88-.63c0-1.14-.7-1.91-.84-2.94,0-.37,0-.74.36-.84s.48.19.61.49S175.44,161.08,175.65,161.08Z"/><path d="M172.81,156.19l-2.57-2.86c.54-1,.54-1,1.28-.1a6.3,6.3,0,0,1,1.48,2.28C172.94,155.73,172.88,156,172.81,156.19Z"/><path d="M174.34,161.07c.3.15.23.7.38.78.85.48.49,1.4.61,2.15.07.43.44.43.63.69a.49.49,0,0,1,.25.36.25.25,0,0,1-.08.21c-.15.36-.32.41-.46,0-.07-.22-.13-.4-.36-.4s-.35-.19-.46-.41a7.75,7.75,0,0,0-.35-1.8,2.31,2.31,0,0,0-.32-1.19C174.23,161.33,174.28,161.2,174.34,161.07Z"/><path d="M165,132.36l-.5-.08a3.34,3.34,0,0,0-.26-2.84c-.38-1-.55-2.07-1-3a2.55,2.55,0,0,1-.1-1.45,49.31,49.31,0,0,0,.54-6.77,7.9,7.9,0,0,0,.15-1c-.06.36-.1.77-.57.46a1.65,1.65,0,0,1,0-1.14c.21-1-.08-1.93.11-2.88.19-.17.4-.28.38-.69a9.18,9.18,0,0,0-.43-3.62,1.27,1.27,0,0,1,0-.48,1.23,1.23,0,0,1,.1-.43.42.42,0,0,1,.44-.24,10.68,10.68,0,0,1,.47,2.38,13.29,13.29,0,0,0,.33,1.78,1.21,1.21,0,0,1,0,.19,13.68,13.68,0,0,0-.33,4.56c0,1.42-.16,2.8-.29,4.2a5.31,5.31,0,0,0,.47,3.1,1,1,0,0,1,.12.36c.1,2.61.93,5.08,1,7.7a1.07,1.07,0,0,1-.14.34Z"/><path d="M176.11,165.09l-.15-.41a11.7,11.7,0,0,0,.67-3.18c.6-.33.78,0,.72.67,0,.23-.06.45-.09.68a9.37,9.37,0,0,1-.52,1.83C176.64,165,176.44,165.24,176.11,165.09Z"/><path d="M176.11,165.09c.59-.15.45-.89.72-1.31a7.17,7.17,0,0,0,.43-.93c.05.13.11.25.16.38a.79.79,0,0,1-.13.64,1.15,1.15,0,0,0-.3.86c0,1-.32,1-.86.52A.78.78,0,0,1,176.11,165.09Z"/><path d="M164.65,112.3c-.15-.58-.7-1.06-.33-1.78h.15Z"/><path d="M154.83,167.42c-.83-.87-1.93-.92-2.9-1.34-.21-.09-.57-.63-.87-.05-.31-.13-.44-.62-.83-.58s-.37-.08-.33-.4.46-.4.77-.4c.74,0,1.47,0,2.21,0a2,2,0,0,0,1.08-.38c.31-.18.3-.35.09-.67-1.35-2.06-2.67-4.14-4-6.21a1.37,1.37,0,0,1-.31-.88,3,3,0,0,0,.81-2.54c0-.7,0-1.32.78-1.32.36,0,.54-.34.66-.75s.23-.71.54-.62.12.51.16.78c0,.1,0,.2,0,.3a.33.33,0,0,1,0,.29,1.2,1.2,0,0,1-.69,1.28c-.82.39-1,1.11-.66,2.07a2.34,2.34,0,0,0,.68,1.1,4.13,4.13,0,0,1,1.36,2.61,3.93,3.93,0,0,0,1,1.93c2,2.37,4.78,2.89,7.24,4.15a17.38,17.38,0,0,0,6.44,1.55c.28,0,.68,0,.67.5s-.38.45-.64.43a4.2,4.2,0,0,0-2.29.64,1,1,0,0,1-.71.19c-.93-.26-1.83.2-2.76.09a32.5,32.5,0,0,1-4.57-.94c-.72-.16-1.43-.39-2.16-.48A1.47,1.47,0,0,1,154.83,167.42Z"/><path d="M149.9,165.05l.33.4c0,.25-.11.57-.29.5-.72-.29-1.39.11-2.08.09s-1-.55-1.12-1.21a14.3,14.3,0,0,0-.79-2.45c-.09-.24-.24-.55,0-.73s.38.19.57.31c.52.32.8,1.1,1.48,1.1A6.86,6.86,0,0,1,149.9,165.05Z"/><path d="M153.19,122.44c.25.29.56.15.84.18s.44,0,.44.4c-1.42.36-2.32,1.63-3.3,2.74a6.29,6.29,0,0,0-.85,2,13,13,0,0,1-3.66,5.23,6.31,6.31,0,0,0-2.13,3,8,8,0,0,1-.9,1.65,2.63,2.63,0,0,0,0,2.93,11.63,11.63,0,0,0,2.72,3.23c1.9,1.91,4.27,2.78,6.34,4.3.42.3,1,.28,1.3.77.05.17,0,.27-.15.28a2.36,2.36,0,0,1-1.64-.48c-2.44-1.46-5-2.65-7.19-4.69-.54-.5-1-1-1.56-1.55a1.11,1.11,0,0,0-.89-.41c-.88.1-1.35-.4-1.34-1.47a4.76,4.76,0,0,1,.4-1.78,33.57,33.57,0,0,1,3-5.3c.75-.38,1.14-1.26,1.73-1.86a13.21,13.21,0,0,0,2.82-3.79,14.3,14.3,0,0,1,2.94-4.31,2.94,2.94,0,0,0,.39-.75.38.38,0,0,0,0-.15C152.77,122.67,152.93,122.33,153.19,122.44Z"/><path d="M156.62,109.9l.18,0a17.13,17.13,0,0,0,1,4.84.86.86,0,0,1,0,.39,2.93,2.93,0,0,0,.37,2.22,4.44,4.44,0,0,0,2.47,2,3.46,3.46,0,0,1,1.43.72c-.17.58-.56.41-.91.4a6.76,6.76,0,0,1-3.42-1.7,4.6,4.6,0,0,1-1.32-1.71,3.11,3.11,0,0,0-1.09-1.41.78.78,0,0,1-.05-.14c0-.2,0-.52-.14-.49-.9.15-.73-.64-.8-1.23,0,.18,0,.44-.21.54-.1-.33-.21-.66-.31-1a1.23,1.23,0,0,1,.24-1.32c.32-.29.66,0,.93.28.57.13.86-.15.95-.84a3.41,3.41,0,0,1,.51-1.33C156.51,110.05,156.56,110,156.62,109.9Z"/><path d="M155.34,115.65a.91.91,0,0,1,1,.68,5.84,5.84,0,0,0,4.46,3.73.94.94,0,0,1,.22.12c-.44.85-.18,1.8-.25,2.71,0,.5.12,1.09-.39,1.39-.72-.48-.37-1.22-.31-1.88.06-.34,0-.58-.34-.64a6,6,0,0,1-2.39-1.44c-.55-.44-1.06-.55-1.59.14a1.18,1.18,0,0,1-1.29.6c1-.92,1.09-2.25,1.19-3.63A5,5,0,0,0,155.34,115.65Z"/><path d="M154.52,121.05c.41-.25.93-.35,1.18-.81.54-1,1.17-.71,1.76-.22a5.67,5.67,0,0,0,2.43,1.48.57.57,0,0,1,.49.73c-.32.63-.43,1.54-1.31,1.44a.76.76,0,0,1-.15-.23,2.93,2.93,0,0,0-1.54-2.45,1,1,0,0,0-1.1,0,3.34,3.34,0,0,1-1.8.48.17.17,0,0,1-.06-.16q0-.09,0-.09C154.48,121.16,154.5,121.1,154.52,121.05Z"/><path d="M154,115.72c.22.19.3.42.59.53.48.18.55.89.39,1.52a4.93,4.93,0,0,0-.45,2c0,.17-.08.38-.21.37a.61.61,0,0,1-.55-.5A8.62,8.62,0,0,1,154,115.72Z"/><path d="M154.13,114.32c0-.39,0-.78.07-1.17,0-.13.1-.23.23-.2a.2.2,0,0,1,.14.28c-.19.55.17,1,0,1.8.35-.34.56-.83.83-.32.14.25.46.63-.1.79C154.88,115.15,154.13,115.28,154.13,114.32Z"/><path d="M156.46,110.12c-.11.54-.24,1.07-.31,1.61-.13.9-.48,1.08-1.15.56C155.58,111.67,155.8,110.68,156.46,110.12Z"/><path d="M154.47,121.22l0,.21a.35.35,0,0,1,0,.4c-.19.85-.75.52-1.2.55A5.46,5.46,0,0,0,154.47,121.22Z"/><path d="M153.85,149.2,154,149a.4.4,0,0,1-.06-.26c.27-.72.57-1.44.84-2.16a1.08,1.08,0,0,1,1.43-.3c.25.21.1.43,0,.64s-.27.74-.41,1.11a4,4,0,0,1-.21.47c-.07.18-.23.28-.29.46.14.08.33-.12.44.12a1.12,1.12,0,0,1-.29,1.06.93.93,0,0,0-.21.52c0,.86-.38.91-.91.53-.72-.23-.54-1-.66-1.59Z"/><path d="M152.69,152.55a1.08,1.08,0,0,0,0-.18A14.79,14.79,0,0,1,153,155c.26,1.25,1.45,1.84,2.3,1.11a.6.6,0,0,0,.16-.82c-.22-.45-.31,0-.45.12-.64.47-1.44,0-1.49-.92,0-.69,0-1.38,0-2.07.39-.44.89-.35,1.36-.45a.69.69,0,0,1,.25,0,8,8,0,0,0,1,.22c.61.43,1.4.41,1.9,1.11a3,3,0,0,0,1.62.86.66.66,0,0,1,.51.53,4.89,4.89,0,0,1-.06,1.62.44.44,0,0,0-.5,0,.38.38,0,0,1-.12-.34c0-.25-.07-.36-.27-.36.11,0,.24,0,.24.21,0,.41-.39.4-.51.68-1,.65-1,.62-.2,1.66a3.44,3.44,0,0,0,2.13,1.36,8.72,8.72,0,0,1,2.68,1.12c1.31.75,2.75.67,4.13,1,1.75.42,3.56.51,5.19,1.57a1,1,0,0,0,1.66-.59c.72.37.41,1.16.49,1.79a.44.44,0,0,1,0,.43,7.81,7.81,0,0,1-2.59-.81,10.81,10.81,0,0,0-3.26-.92,32,32,0,0,1-9.49-2.82,6,6,0,0,1-2.87-4c-.14-.46-.53-.86-.44-1.31a2,2,0,0,1-.33,1c-.22.37-.44.75-.89.73s-.77.23-1.15,0c-1.07-.12-1.7-1.12-1.54-2.56C152.52,153.63,152.57,153.08,152.69,152.55Z"/><path d="M155,152.15l-1.46.22c-.24.1-.5.23-.51-.28s0-.79,0-1.19c0-.2,0-.44.21-.47s.24.2.27.4c.09.74.43.62.81.33.39,0,.86.1.67-.73a.37.37,0,0,1,.31-.48c.09.58.73,1,.43,1.69-.36.29-.76.11-1.14.08-.1,0,0,.07,0,.06C154.83,151.73,155,151.79,155,152.15Z"/><path d="M160.56,119.63a5.07,5.07,0,0,1-3-2.71c-.07-.13-.17-.33-.13-.45.49-1.77-.64-3.17-.75-4.82a5.87,5.87,0,0,1,.08-1.73c.68-.61.63-1.79,1.29-2.4.42,0,.72-.47,1.16-.39.08.39-.19.5-.37.67a2.18,2.18,0,0,0-.56,2.19c-.08.24,0,.42.18.5.15.57.87.37.94,1a2.55,2.55,0,0,1-.33.34c.41,0,.51-.4.75-.58.77,0,.92.35.63,1.28a1.14,1.14,0,0,1-.56.34,2.27,2.27,0,0,1-1,0c-.29-.06-.53-.32-.83-.29a.8.8,0,0,0,.1.69,15.83,15.83,0,0,1,1,3.54,3.29,3.29,0,0,0,1,2C160.41,119,160.66,119.22,160.56,119.63Z"/><path d="M162.39,107.31a.42.42,0,0,0,.16,0c.7.31.68,1.08.8,1.77,0,.47.32,1-.18,1.37a1.74,1.74,0,0,0-.83,1.21c-.1.39,0,.69.31.84a2.36,2.36,0,0,1,.58.56,7.32,7.32,0,0,1,.26,2.34c-.15.37-.15.86-.57,1a7.82,7.82,0,0,0-2.58.32c-1-.19-1.24-.64-1.36-2.28.22-.48.41-.12.56.06a2.62,2.62,0,0,1,.47,1.18c.35-.12.57-.44.88-.55a1.73,1.73,0,0,1,1.16-.18c.14,0,.4.19.35-.24a5.43,5.43,0,0,1-1.13-4.16c1-.81,1.07-1.35.24-2.29-.49-.56-.78-.49-1.11.26-.18.42-.13,1-.52,1.29a.55.55,0,0,1-.38,0c-.15-.07-.33-.13-.4-.32-.22-.64.71-2.43,1.28-2.49A6.28,6.28,0,0,1,162.39,107.31Z"/><path d="M162.39,107.31c-.53.16-1-.13-1.53-.17s-1.07.12-1.15,1a1.77,1.77,0,0,1-.32.89c-.4.48.06.47.21.65-.38.45-.88.37-1.35.41a2.15,2.15,0,0,1,.3-2.31c.23-.22.47-.43.71-.64A3.73,3.73,0,0,1,162.39,107.31Z"/><path d="M163.85,108.14l-.34.2c-.55,0-.42-.53-.55-.87s0-.92-.58-.53c-.48,0-.78-.42-1.08-.8-.46-.59-.92-1.11-1.66-.61-.12.08-.32,0-.5-.17.46-.62,1.06-.3,1.58-.39a14.05,14.05,0,0,0,1.75,1A2.38,2.38,0,0,1,163.85,108.14Z"/><path d="M162.37,106.93c-.19-.63.11-.64.43-.43a1,1,0,0,1,.39.91c0,.37,0,.73.32.93,0,.13,0,.26,0,.39s0,.52-.31.41a4.61,4.61,0,0,0-.64-1.81Z"/><path d="M176,169.63c-.14-.43.17-.66.33-.5.42.4.81.24,1.23.12.17-.05.3.12.4.28s0,.3-.13.37c-1.22.79-1,2.3-1.15,3.57a56.6,56.6,0,0,0,.28,7.81c.1,1.9,0,3.8.07,5.7,0,1.18.06,2.36.14,3.53,0,.41,0,.54-.36.53s-.44-.19-.66,0a6.84,6.84,0,0,1,0-2.43,70.81,70.81,0,0,0-.66-8.37,28.7,28.7,0,0,1,.42-9.43A2.69,2.69,0,0,0,176,169.63Z"/><path d="M179.72,194c-.85.66-1.67,1.43-2.77,1.39-.14.06-.19,0-.15-.17.59,0,.52-.64.52-1a5.52,5.52,0,0,1,.11-1.35c.1-.41-.2-1.08.28-1.2a2.35,2.35,0,0,1,1.9.16c.23.15.26.32.09.62A1.31,1.31,0,0,0,179.72,194Z"/><path d="M176.8,195.21l.15.17.16.2c-.11.55-.29.36-.56.13s-.48-.71-.79-.19.3.56.44,1c-1-.52-.7.58-.74.93-.06.6-.26.72-.66.7-.31-.33-.17-.66-.08-1.06a3.69,3.69,0,0,0,.26-2.3,3.88,3.88,0,0,0-.27-1.31c-.15-.62-.07-1.13.62-1.06C175.45,193.64,175.71,194.75,176.8,195.21Z"/><path d="M183.35,194.79a5.14,5.14,0,0,0,.75,1.72c.16.26.36.56.12.74-.4.3-.18-.28-.3-.41-.29-.36-.7-.27-1-.48,0,1.65.07,1.45,1.36,1.49-.16.45-.42.57-.77.47a1.54,1.54,0,0,1-1.17-1.1c-.07-.28,0-.91.4-1s.33-.44.33-.58c0-.42-.25,0-.39-.09a6.8,6.8,0,0,1-.95-1.26,7.32,7.32,0,0,0,1.67.52Z"/><path d="M152.69,152.55a14.4,14.4,0,0,1,0,1.47,2.51,2.51,0,0,0,1.32,2.71,2.3,2.3,0,0,0-.36,1.77c.14,3.46,2.4,4.36,4.42,5.49a34.7,34.7,0,0,0,4.83,2.09,13.27,13.27,0,0,0,4.24.75,36,36,0,0,0,5.77-.36,1.14,1.14,0,0,1,1.21,1,1.63,1.63,0,0,0,1.12,1.27c-.13.47-.43.24-.63.34h-3a6.45,6.45,0,0,1-2,0,1.23,1.23,0,0,0-1,.17l-.06,0-.05,0c-.66.26-1.36-.11-2,.17l-.45,0a7.73,7.73,0,0,1-2.4,0l-.93,0c-.1-.1-.27-.16-.16-.38.85.12,1.67-.66,2.54-.15a.29.29,0,0,0,.24,0,5.19,5.19,0,0,1,3.55-.83,1,1,0,0,0-1.08-.42,17.79,17.79,0,0,1-4.87-1c-1.44-.53-2.83-1.3-4.24-2-.61-.28-1.21-.59-1.83-.84a8.88,8.88,0,0,1-3.11-2.64,2.79,2.79,0,0,1-.58-1.47,3.14,3.14,0,0,0-1.14-2.27,3,3,0,0,1-1-2.78c.08-.5.28-.81.64-.91A1.35,1.35,0,0,0,152.69,152.55Z"/><path d="M162.53,169c.05.13.11.26.16.38a28,28,0,0,1-8.25-1.95l.39,0a53.5,53.5,0,0,1,6.81,1.52A3.78,3.78,0,0,0,162.53,169Z"/><path d="M168.59,169.23c.2-.31.48-.5.77-.38a8.92,8.92,0,0,0,2.24.18A12.68,12.68,0,0,1,168.59,169.23Z"/><path d="M166.46,169.4c0-.22.11-.37.32-.29a7.4,7.4,0,0,0,1.69.12A6.16,6.16,0,0,1,166.46,169.4Z"/><path d="M163.62,169.43H166A4.72,4.72,0,0,1,163.62,169.43Z"/><path d="M135.81,180.91c.26-.46.57-.69,1-.37A1.39,1.39,0,0,1,135.81,180.91Z"/><path d="M122.37,181.51l1.4-.39a15.83,15.83,0,0,1-6.21,3.13c.43-.25.85-.53,1.29-.75a30.09,30.09,0,0,0,3.52-2Z"/><path d="M163.36,117.66c.58-.26.26-1.07.76-1.61-.12,1.14-.08,2.16-.16,3.14a52.67,52.67,0,0,1-.59,6.15,2.15,2.15,0,0,0,.18,1.12c.57,1.57,1.06,3.18,1.55,4.79.2.65-.46.63-.6,1l-.17-.14c-.08-.3-.11-.66-.49-.61l-.15-.17a1.42,1.42,0,0,0-.63-.69,6.71,6.71,0,0,1-2.1-2.55.53.53,0,0,1,.06-.55c.58-.12.65.65,1,.88a2.29,2.29,0,0,0,.85.56,43.74,43.74,0,0,1-.27-8.16,8.9,8.9,0,0,0,.25-2.36C162.88,118.07,163,117.76,163.36,117.66Z"/><path d="M161.06,127.57c.06,1,.76,1.44,1.2,2.1.27.41.53,1,1.2.87.26-.06.19.52.23.83a6,6,0,0,1-2.25-2.09.72.72,0,0,0-.72-.32c-.06-.19-.11-.38-.17-.57a16.46,16.46,0,0,0-1.35-3.46,1.08,1.08,0,0,1-.12-1.33c.6-.22.89-.87,1.29-1.37a3.12,3.12,0,0,0,0,2A12.65,12.65,0,0,1,161.06,127.57Z"/><path d="M163.84,131.53c.32.14.28-.58.52-.37s-.05.65,0,1A1.3,1.3,0,0,1,163.84,131.53Z"/><path d="M146.3,144c-1.48-1.23-2.91-2.52-3.33-4.83a.93.93,0,0,1,0-.66c1-1.65,1.48-3.66,2.76-5a15.49,15.49,0,0,1,1.84-1.79,9.94,9.94,0,0,0,2.82-4.72c.67-2,2-2.79,3.2-4,.29-.3.57.1.86,0l0,.57c.07.1.19.14.2.3a.34.34,0,0,1-.23.27.62.62,0,0,1-.33,0,.83.83,0,0,0-1,.19l-.27.25a14.1,14.1,0,0,0-3,5.42c-.49,1.58-1.06,2.93-2.45,3.59a4.17,4.17,0,0,0-1.48,1.8,1,1,0,0,0,0,1.1c.24.28.5-.06.73-.22a7.93,7.93,0,0,0,2.16-2.09c.23-.36.52-.63.88-.14a4.73,4.73,0,0,1-1.68,2.38c-.92.77-1.6,1.88-2.58,2.54a.51.51,0,0,0-.2.66c.15.26.39.31.61.42,1.59,1.58,3.3,3,5,4.35-.1.56-.43.4-.69.28a19.83,19.83,0,0,1-3.82-2.33c-.26-.22-.49-.54-.86-.38-.22.39.1.49.24.69C145.92,143.06,146.36,143.37,146.3,144Z"/><path d="M159.09,123.59a2.24,2.24,0,0,0,.43,1.4,6.16,6.16,0,0,1,1,3.38,16.51,16.51,0,0,1-2.47-3.17,2.12,2.12,0,0,0-.16-.94c-.36-1.29-.65-1.49-1.79-1.26l-1-1c-.2-.44.06-.51.31-.55s.49,0,.73,0c1.39-.3,2.38.38,2.89,2A.75.75,0,0,1,159.09,123.59Z"/><path d="M159.09,123.4c-.39-.73-1.06-1.11-1.53-1.74a.46.46,0,0,0-.51-.22,3.17,3.17,0,0,1-1.81.32,1.37,1.37,0,0,0-.08.26.89.89,0,0,0-.62-.2l0-.4a20.61,20.61,0,0,1,2.13-.86C157.6,120.14,159.09,121.92,159.09,123.4Z"/><path d="M156.14,123a.9.9,0,0,1,1.45-.1,5.78,5.78,0,0,1,.76,2.12s-.17.11-.26.17C157.44,124.48,156.79,123.74,156.14,123Z"/><path d="M154.49,124l.17-.2c.49,0,.59.48.77.85l.53,1.11a.29.29,0,0,0,.13,0c0,.14,0,.27,0,.41,0,.39-.15.73-.54.72s-.47-.41-.49-.77a2.8,2.8,0,0,0-.52-1.52A.48.48,0,0,1,154.49,124Z"/><path d="M156,125.77c-.61-.48-.62-1.54-1.29-2,0-.07-.1-.15-.16-.22C155.55,123.77,155.66,124.86,156,125.77Z"/><path d="M157.92,133.31a2.93,2.93,0,0,0,.53-2.19,5,5,0,0,1,0,2.2,6,6,0,0,0,1,2.73c.92,1.56.72,2.28-.74,3.06-.57.3-1.18.14-1.92.41.71.09,1.4-.22,1.63.74a2.48,2.48,0,0,1-2.29.33c-.62-.88-.46-2-.62-3a.6.6,0,0,1,.41-.46,3.48,3.48,0,0,1-1.86-.16.58.58,0,0,1-.46-.82,1.15,1.15,0,0,1,.12-.25,2.59,2.59,0,0,1,.37-.37c.54-.55,1.29-.5,1.87-1a2.49,2.49,0,0,0,.67-.55c.43-.32.46-1,.91-1.33C157.82,132.75,157.78,133.11,157.92,133.31Z"/><path d="M158.43,140.06c-.51-.11-1-.57-1.55-.09-.14.12-.33.07-.38-.18s0-.62.32-.68a3,3,0,0,1,.89,0,2.67,2.67,0,0,0,1.85-.89.81.81,0,0,0,.17-1.11c-.33-.6-.67-1.19-1-1.79a2,2,0,0,1-.32-2c.46,0,.61.49.78.89.38.9.75,1.8,1.14,2.7.71,1.65,1.73,2.72,3.38,2.58.09,0,.18.11.28.18-.91.8-1.84,1.52-3.05,1.19-1-.27-1.47.31-1.71,1.36a.43.43,0,0,1-.21.19.74.74,0,0,1-.39,0,1.58,1.58,0,0,0-1,0c-.44.1-.78.07-.94-.63s-.14-1.09.54-1.26a18,18,0,0,1,3.19-.51C159.87,140,159.15,140.46,158.43,140.06Z"/><path d="M157.92,133.31a.71.71,0,0,1-.32-.59c-.27-.31-.19-.72-.23-1.1a11.89,11.89,0,0,1-.21-2.67c.05-.07.1-.15.16-.22a5.84,5.84,0,0,1,.65,1.81C158,131.46,157.93,132.39,157.92,133.31Z"/><path d="M157.15,129a9.24,9.24,0,0,1,.44,2.58c-.05.13-.1.27-.23.32a1.07,1.07,0,0,1-1-.42c-.68-.76-1.56-1.19-2.25-2s-1.21-.65-1.92,0a4.89,4.89,0,0,1-.58.54.82.82,0,0,1-1.08,0c-.38-.35-.24-.83-.1-1.27a15.94,15.94,0,0,1,2-3.72c.13-.21.26-.42.41-.62l.17-.2a1.35,1.35,0,0,1,1.15-.2h.32a3.7,3.7,0,0,1,.85,2.42.4.4,0,0,0,.17.29c.36.11.4-.35.61-.53C156.46,127.11,156.81,128,157.15,129Z"/><path d="M175,164.85c0-.14,0-.27,0-.41l.31.41c.24.93.09,1.28-.72,1.16-2.87-.41-5.76.05-8.63-.34a19.9,19.9,0,0,1-5.38-1.42,15.83,15.83,0,0,1-4.69-2.9,4.24,4.24,0,0,1-.74-4.64c.2-.29.53-.4.66-.77.54-.29.73.25.92.65a10.73,10.73,0,0,1,.45,1.16,6.52,6.52,0,0,0,5.09,4.39c3.7.82,7.42,1.44,11.09,2.46A10.56,10.56,0,0,0,175,164.85Z"/><path d="M161.37,142c1.19-.29,2.36-.81,3.6-.37a2.08,2.08,0,0,1-.8,2.05,10.84,10.84,0,0,0-1.66,2.08,1,1,0,0,0,0,1c.29.7.48,1.34-.34,1.74-.15.07,0,.27.08.42-.31.3-.5,0-.66-.23a3,3,0,0,0-.61-.62.7.7,0,0,1-.13-.7,2,2,0,0,0,.33-1.44,9,9,0,0,1,.6-3.77C161.69,142.23,161.52,142.25,161.37,142Z"/><path d="M168.54,151.2c-1.32-1.66-2.83-3.13-3.59-5.35-.06-.29-.27-.59,0-.86a26.76,26.76,0,0,0,4.28,5.49,8.34,8.34,0,0,1,.65.88A2.35,2.35,0,0,0,168.54,151.2Z"/><path d="M163.51,149.19c-.54,1.24-.59,2.66-1,3.94-.58,0-.55-.43-.49-.92a2,2,0,0,0-.47-1.83,1.05,1.05,0,0,1,.13-1.22c.22-.06.33.05.36.31C162.64,150.26,163.07,149.62,163.51,149.19Z"/><path d="M162,149.46l-.33-.28c-.33-.07-.49-.38-.65-.69A.77.77,0,0,1,161,148c.61-.06.62,1,1.2,1C162.46,149.28,162.26,149.38,162,149.46Z"/><path d="M161.37,142c.24.07.56-.23.42.57-.22,1.24-.78,2.49-.38,3.83.18.6-.06.84-.49,1A2.45,2.45,0,0,1,159,147c-.35-.37-.9-.43-1.14-.9s.42-.82.41-1.38a8.69,8.69,0,0,0,.13-1.35c-.12-.71.11-1.05.69-1.07l.17,0C160,142.16,160.66,142.09,161.37,142Z"/><path d="M160.09,156.3a2.43,2.43,0,0,1,0-1.53c.3-.24.22-.53.07-.83a1,1,0,0,1,.08-1.07c.23-.2.44-.43.75-.36,1.28.8,1.28.8,1.11,2.84,0,.19,0,.38,0,.57C161.41,156,160.66,155.49,160.09,156.3Z"/><path d="M162.07,155.35a1.7,1.7,0,0,1,0-.39c.12-1-.05-1.72-.89-2.06-.14-.06-.25-.1-.25-.31s0-.25,0-.37a1.52,1.52,0,0,0,.66-1.48.57.57,0,0,1,.13-.36c0-.11.15-.28.15-.24.08.7.77,1.22.38,2.05a.65.65,0,0,0,.27.94A18.18,18.18,0,0,1,162.07,155.35Z"/><path d="M158.92,156.52c-.52-.74.61-.08.3-.67-.09-.3-.53.07-.65-.35.83-.09.93,0,1,.83C159.4,156.59,159.15,156.49,158.92,156.52Z"/><path d="M163.36,117.66c-.1.27-.37.45-.33.8s0,.64-.38.62c-.44-.4-1-.31-1.48-.48a1.08,1.08,0,0,1-.86-1.4,1.68,1.68,0,0,1,2.1-.33.32.32,0,0,0,.38,0l.14-.19c.3-.3.3-.77.42-1.16,0-.81.18-1.66-.33-2.37.21-.21.37-.1.52.11a.32.32,0,0,1,0,.27A16.17,16.17,0,0,1,163.36,117.66Z"/><path d="M163.52,113.48a1,1,0,0,1,0-.17,1.15,1.15,0,0,0-1-.72c-.38-.21-.25-.49,0-.64.51-.32.8-.66.35-1.34-.05-.08.09-.21.19-.27.55-.31,0-.81.14-1.21l.31-.41a11.51,11.51,0,0,1,.52,4.49,1.65,1.65,0,0,1-.12,1C163.57,114.08,163.76,113.61,163.52,113.48Z"/><path d="M146.3,144a5.61,5.61,0,0,0-1-1.38.66.66,0,0,1-.13-1,9.42,9.42,0,0,1,.91,1,17,17,0,0,0,6.72,4.65A2,2,0,0,1,154,148.8a.3.3,0,0,1,0,.18A31.1,31.1,0,0,1,146.3,144Z"/><path d="M162.68,119l.34-.52c.31.83-.09,1.58-.18,2.36-.71,0-.6.75-.75,1.26-.06.21-.09.5-.31.52s-.31-.27-.32-.36c.17,1.24.72,2.6.32,4.09-.11.41.23.8.28,1.22s.36.84-.21,1c-.39-.2-.43-.79-.8-1a8.12,8.12,0,0,1-.69-3.36,8.83,8.83,0,0,0,.16-3.28c0-.57.1-.77.54-.75s.67.21,1-.14C162.15,119.6,162.25,119.14,162.68,119Z"/><path d="M162.68,119c-.23.34-.18.93-.65,1.06s-1-.37-1.47-.41c-.54-.71-1.28-1.22-1.47-2.26,0-.19-.15-.36-.16-.54a10.82,10.82,0,0,0-1.07-3.75c-.09-.25-.34-.49-.11-.79s.51-.07.67.07c.46.4,1,.29,1.49.37,0,.1,0,.24-.07.25-.63.12-.74.68-.75,1.31a10.5,10.5,0,0,1,.3,1.23c.08.76.45,1,1,1a.4.4,0,0,1,.09.21c0,.2-.08.38-.09.58,0,1.14.74,1,1.32,1.18C162.07,118.54,162.56,118.26,162.68,119Z"/><path d="M154,148.81a4.41,4.41,0,0,0-1.83-1.46,16.68,16.68,0,0,1-6.75-5,1.13,1.13,0,0,1-.31-.67.81.81,0,0,1,1,.2,18.79,18.79,0,0,0,4.18,2.68.3.3,0,0,0,.44-.08c.49-.24.89.12,1.29.35a2.91,2.91,0,0,0,1.87.53,3.11,3.11,0,0,1,.95,1.46A4.34,4.34,0,0,1,154,148.81Z"/><path d="M155.62,148l.36-1.13a8,8,0,0,1,3.15.26,5,5,0,0,0,.62.21c.8.15,1.07.52,1.12,1.55,0,.13-.13.28-.1.36a1.92,1.92,0,0,1-.39,1.92c-.14.46-.36.77-.81.65-.81-1.27-1.94-1.25-3.1-1.14-.21,0-.43.15-.64.07-.37-.14-.65-.51-.3-.84.61-.57.41-1.07.09-1.64A.32.32,0,0,1,155.62,148Z"/><path d="M155.62,148c.13.16.36.32.37.49,0,.39.72.93-.14,1.21a.51.51,0,0,0-.29.62c.13.35.38.23.63.17a3.23,3.23,0,0,1,2.87.37,1.18,1.18,0,0,1,.51.84.2.2,0,0,1,0,.23c-.42.39-.52,1.42-1.36,1-.62-.35-1.38-.36-1.9-1a1.28,1.28,0,0,1-.4-.21l-.07-.1c-.1-.56-.89-.81-.5-1.59.16-.29.5-.5.32-1a.85.85,0,0,1-.2-.62C155.49,148.24,155.56,148.1,155.62,148Z"/><path d="M154.82,146.8c-.36-.43-1-.58-.95-1.4a3.73,3.73,0,0,1-.31-2.24.35.35,0,0,1,.19-.22,7.53,7.53,0,0,1,1.57-.15.68.68,0,0,1,.36.2,23.13,23.13,0,0,1,.81,3.43.17.17,0,0,1-.24,0C155.77,146.5,155.21,146.16,154.82,146.8Z"/><path d="M156.26,146.44l.2,0c.39-.12.81,0,1.2-.17s.93.42,1.42.54c.54.5,1.27.21,1.84.62,0,.2-.11.43.08.59s.11.28.17.43.05.45-.1.62-.31.4-.35-.08a1.19,1.19,0,0,0-1.07-1.51c-.84-.12-1.66-.61-2.56-.18-.33.16-.66-.55-1.11-.43C156.07,146.7,156.16,146.57,156.26,146.44Z"/><path d="M155.42,148.38c.08.2.27.35.2.62s-.38.6-.64.2C154.56,148.54,155.45,148.8,155.42,148.38Z"/><path d="M175,164.85c-.87.56-1.69,0-2.52-.2-2.79-.61-5.57-1.35-8.39-1.77-.67-.1-1.33-.3-2-.45a7.13,7.13,0,0,1-5.46-5.49c-.13-.46-.33-.91-.8-1a3.44,3.44,0,0,0,.55-1.81.49.49,0,0,1,.19.58c0,.13-.09.32-.05.37.85,1,.83,2.54,1.63,3.6a5.8,5.8,0,0,0,2.89,1.92c.94.34,1.84.77,2.77,1.13a13,13,0,0,0,2.47.58c2,.37,4.11.47,6,1.42C173.18,164.17,174.17,164.2,175,164.85Z"/><path d="M153.84,153.86c0-1,.81-1.54,1.59-1.07.28.17.22.44,0,.63a2,2,0,0,0-.43,1c-.1.49-.3.75-.74.68s-.47-.45-.47-.87Z"/><path d="M159.57,151.67c.33-.06.66-.11.61-.67.51-.08,1-.11,1.52-.22a1.18,1.18,0,0,1-.66,1.55c-.71-.64-.59.32-.82.62,0,.36-.13.7.19,1,.15.16.06.66.08,1l-.45-.25c-.16-.16-.22-.48-.49-.46-.46-.84,0-1.65,0-2.47A1.37,1.37,0,0,1,159.57,151.67Z"/><path d="M159.61,151.84c.11.15.38.23.22.52a4.46,4.46,0,0,0-.26,1.95c-.35.34-.62,0-.84-.22s-.58-.3-.84-.51a1.52,1.52,0,0,1,.39-.87c.3-.09.76.19.71-.62C159,151.65,159.28,151.47,159.61,151.84Z"/><path d="M158.28,152.7c0,.35.07.8-.39.87-.4-.81-1.3-.54-1.76-1.21a.7.7,0,0,1,.17-.78c.46.41.9.89,1.55.77C158,152.31,158.2,152.48,158.28,152.7Z"/><path d="M155,152.15l-.54-.5c.48-.2.92,0,1.35-.08h0c.32.31.4.58-.11.68a.7.7,0,0,1-.56-.07Z"/><path d="M155.14,152.18c.22-.21,1,.42.67-.61h.5a1.57,1.57,0,0,1-.17.78C155.8,152.28,155.44,152.47,155.14,152.18Z"/><path d="M161.37,110.53a9,9,0,0,0,.74,3.46c.12.43.54.39.73.72-.75.05-1.59.71-2.18-.44a6.24,6.24,0,0,0-.27-1.78c.18-.76.05-1-.48-1-.17.14-.34.18-.5,0s-.45-.16-.66-.29-.52-.25-.33-.7c.07-.66.49-.56.85-.57a2,2,0,0,1,1.19.5c-.21-.24-.34-.37-.19-.59C160.82,109.65,161.18,109.88,161.37,110.53Z"/><path d="M160.39,112.48c.71.43.44,1.15.36,1.82a1.46,1.46,0,0,1,.14,1c.05.38-.55.16-.4.63-.26,0-.69.6-.74-.25a2,2,0,0,0-.66-1.38c-.37-1.11-.37-1.11.82-1.56Z"/><path d="M160.24,109.93c.22.29.59.41.78.89-.92-.1-1.68-1.3-2.6-.32-.31,0-.19-.23-.18-.41.38-.48.88-.35,1.35-.41l.31.06A.29.29,0,0,1,160.24,109.93Z"/><path d="M159.41,111.5h.5a3.11,3.11,0,0,1-.22.4.63.63,0,0,1-.86.29.38.38,0,0,1-.16-.29C158.79,111.48,159.14,111.6,159.41,111.5Z"/><path d="M160.24,109.93l-.34-.18c.18-.7.13-1.52.73-2,.11-.09.2-.25.32-.28.4-.1,1.35,1.31,1.41,2.06.08.94-.46,1-1,1C161,110.23,160.71,109.87,160.24,109.93Z"/><path d="M163,110.34c0,.09-.08.24,0,.27.61.67.55,1-.22,1.42-.18.08-.62,0-.26.5.07,0,.09.06.08.1s0,.07-.06.07c-.45,0-.56-.45-.46-.85C162.22,111.22,162.29,110.44,163,110.34Z"/><path d="M160.89,115.29c-.28-.28-.2-.64-.14-1,.64.56,1.42.09,2.09.41-.06.44-.24.78-.63.59S161.32,115.29,160.89,115.29Z"/><path d="M160.41,116.68a1.48,1.48,0,0,0,0-.21c.81-.1,1.61-.64,2.45-.19a.38.38,0,0,1,.18.57l0,0Z"/><path d="M162.53,112.7a.5.5,0,0,0,0-.17c.62-.28.86.15,1,.78a.59.59,0,0,0-.47-.21Z"/><path d="M163,116.85l-.18-.57c.33-.12.27-.59.5-.8A1.77,1.77,0,0,1,163,116.85Z"/><path d="M175,194.8c.47-.06.64.28.41.69-.39.7-.18,1.63-.64,2.29,0,.06,0,.25.05.37-.23,0-.46,0-.47-.38C174.32,196.71,174.23,195.62,175,194.8Z"/><path d="M161.86,128.58c0-.11.16-.27.14-.33-.54-1.19-.26-2.47-.35-3.7a12.29,12.29,0,0,1-.16-3c.14.26-.07.67.27.89.29-.74.14-1.74.78-2.28.3.12-.39.82.31.65,0,1.23,0,2.47,0,3.7a17,17,0,0,0,.45,5.12A5,5,0,0,1,161.86,128.58Z"/><path d="M153.73,143c.05.78.1,1.57.14,2.35-.09.54-.39.28-.63.23a18.66,18.66,0,0,1-2.53-1.17c-1.25-.47-2.15-1.61-3.2-2.45a5.29,5.29,0,0,1-1.85-1.93,1.24,1.24,0,0,1,.43-1c1.3-1.6,2.62-3.18,3.94-4.76.24-.29.49-.67.91-.43a17.06,17.06,0,0,1,.93,2.2c.47,1.6,1.07,3.14,1.5,4.75A10.49,10.49,0,0,1,153.73,143Z"/><path d="M152.86,124.4c0,.75-.48,1.14-.8,1.65a11.87,11.87,0,0,0-1.4,2.86c-.09.3-.3.63,0,.89a.6.6,0,0,0,.91,0c1.21-1.63,2.2-1.21,3.45.12a5.24,5.24,0,0,0,2.45,1.82c.13.35.19.72-.14.92s-.57,0-.82-.25c-.57-.54-.85-1.45-1.58-1.79l-.21-.13c-1.16-.75-1.69-.67-2.4.66s-1.8,1.81-2.49,3c0,.07-.15.05-.23,0-.28-.21-.48-.16-.67.21a7.88,7.88,0,0,1-2.58,2.5c-.56.45-.85.19-.84-.64a2.91,2.91,0,0,1,1.41-2.47,6.51,6.51,0,0,0,2.86-4.24,14.75,14.75,0,0,1,2.49-4.64C152.41,124.62,152.58,124.4,152.86,124.4Z"/><path d="M149.58,134.11c.8-1.46,2.21-2.21,2.94-3.78.4-.85,1.39-.75,2.3,0-.4.51-.91-.12-1.33.2a14.34,14.34,0,0,1-2.15,2.7,1.66,1.66,0,0,1-.56.47,3.09,3.09,0,0,0-1,1c-1.25,1.66-2.8,2.92-4.05,4.58a2.25,2.25,0,0,1-.77.54c-.58-.72.09-1.06.38-1.29a25.91,25.91,0,0,0,3.26-3.28C148.94,134.91,149.38,134.65,149.58,134.11Z"/><path d="M145,139.86a26.63,26.63,0,0,1,2.78-3,17.36,17.36,0,0,0,2.25-2.54c.23-.27.41-.62.74-.75.15.1.24.22.11.42-.52,0-.71.55-1,.91-1.36,1.79-2.95,3.3-4.21,5.2C145.38,140.3,145.2,140,145,139.86Z"/><path d="M154.17,124a2.85,2.85,0,0,1-1.15.2C153.34,123.64,153.74,123.68,154.17,124Z"/><path d="M153.35,130.34c.49-.51,1,.15,1.48,0h0a4.59,4.59,0,0,1,1.28,2.5,2.91,2.91,0,0,0,.69,1.26c-.36.73-1,.89-1.61,1.13-.34.15-.67.33-1,.46-.65.41-1.07.12-1.4-.6a13.22,13.22,0,0,1-.65-1.37c-.3-.94,0-1.57.86-1.66.49-.06,1.18.27,1.36-.51S153.59,130.86,153.35,130.34Z"/><path d="M153.19,140.86l-1.54-4.75a2.25,2.25,0,0,1,2.19,0c-.19.44-.05.53.32.6a10.08,10.08,0,0,0,2.19.19c.22,0,.49-.13.71.25-.46.29-1,0-1.41.34a.82.82,0,0,1-.75.27c-.54,0-.59.31-.37.81.16.35.58.65.29,1.11s-.64.19-1,.09c0,0,0,0,0,.08a.18.18,0,0,0,0,.1,1.49,1.49,0,0,0,.37.74,1.19,1.19,0,0,1-.25,1.83C153.29,142.2,153.66,141.26,153.19,140.86Z"/><path d="M153.35,130.34c.7,0,1.11.56,1.56,1.07-.48.68-.94,1.13-1.78,1s-1.19.5-.75,1.46A11.61,11.61,0,0,1,153,135a.93.93,0,0,0,1.17.71.33.33,0,0,1-.33.19,1.32,1.32,0,0,1-1.81-.78,7.81,7.81,0,0,1-.83-2C151.89,132.15,152.85,131.51,153.35,130.34Z"/><path d="M155.66,143l-.34,0a2.34,2.34,0,0,1,.29-1.67,3.91,3.91,0,0,0,.34-.88.11.11,0,0,1,.19,0,5,5,0,0,0,2.3-.39c.81.19,1.63-.4,2.44.09a18.56,18.56,0,0,0-3.3.51c-.3.06-.63.06-.74.46a.58.58,0,0,0,.38.79c.17.08-.26,0-.23.28.58.28,1.18-.47,1.77,0a2.22,2.22,0,0,1-1.58.71C156.66,142.82,156.18,143.32,155.66,143Z"/><path d="M156.14,140.46H156a2.25,2.25,0,0,1-2.28-.61c0-.13-.37-.26,0-.36.19-.05.42.11.63.15s.34.07.44-.13a.35.35,0,0,0-.14-.42,1.29,1.29,0,0,1-.42-1.4c.16-.44.7-.15,1.06-.21a2.8,2.8,0,0,1,.41,0A22.46,22.46,0,0,1,156.14,140.46Z"/><path d="M156.79,134.11c-.4.06-.69-.08-.79-.6a9.91,9.91,0,0,0-1.17-3.16c.92.15,1.18,1.22,1.76,1.84.19.2.37.41.64.3s.2-.48.22-.75l.15-.21v1.19C157.35,133.21,157.28,133.84,156.79,134.11Z"/><path d="M151.18,133.09c.64.34.57,1.25,1,1.82s.9,1.16,1.67,1c0,.07,0,.14,0,.21-.73-.17-1.46.3-2.19,0l-.78-2.14c0-.14-.07-.28-.11-.42Z"/><path d="M157.12,142.65l1.63-.44.33.06c-.43.19-.51.46-.49,1.08,0,.86.12,1.89-.69,2.5.32.45.88.44,1.18.92-.52.08-1-.3-1.47-.34-.78.1-.76.11-.65-.82a8.81,8.81,0,0,0-.28-1.91C156.62,143.2,156.62,142.78,157.12,142.65Z"/><path d="M154.07,126.31c-.36-.25-1.07,0-.9-1,.09-.55.27-1,.78-.88s.81.66.8,1.27C154.73,126.07,154.51,126.46,154.07,126.31Z"/><path d="M161.71,150.77c-.46.5-1,.68-1.52.22-.26-.29-.09-.52.13-.52.75,0,.44-.5.28-.82s-.4-.58.12-.71c.55.32.07-.64.45-.54l.54.78c.18.4-.36.79,0,1.19Z"/><path d="M160.23,152.94c-.33-.66,0-1,.46-1.16s.29.31.36.54l-.15.27C160.7,152.78,160.54,153.06,160.23,152.94Z"/><path d="M160.41,116.68c.87,0,1.76-.45,2.59.21,0,.45-.41.48-.54.34-.72-.78-1.38-.11-2.06,0C160,117.06,160.21,116.87,160.41,116.68Z"/><path d="M153.68,139.86l2.28.61c0,.16.37.27.18.45-.57.54-.56,1.39-.82,2.09-.49-.14-1,.48-1.47,0a.5.5,0,0,1,0-.6c.5-.61.77-1.2-.05-1.78A.5.5,0,0,1,153.68,139.86Z"/><path d="M157.12,142.65c-.64.72-.13,1.48,0,2.15s.24,1.06-.28,1.43c.25.29.51.12.73.2a.87.87,0,0,1-1.15,0,8.1,8.1,0,0,1-.8-3.36A2.8,2.8,0,0,1,157.12,142.65Z"/><path d="M153.84,142.44c0,.2,0,.4,0,.6h-.12a6.48,6.48,0,0,1-.55-2.19C153.93,141.07,153.61,141.92,153.84,142.44Z"/><path class="cls-2" d="M268.75,127.71c-49.43,0-89.5,35.37-89.5,79s40.07,79,89.5,79,89.5-35.37,89.5-79S318.18,127.71,268.75,127.71Zm0,152c-46.67,0-84.5-32.68-84.5-73s37.83-73,84.5-73,84.5,32.68,84.5,73S315.42,279.71,268.75,279.71Z"/><ellipse class="cls-2" cx="268.83" cy="205.2" rx="76.5" ry="66.51"/><path class="cls-3" d="M268.75,27.71c-49.43,0-89.5,35.37-89.5,79s40.07,79,89.5,79,89.5-35.37,89.5-79S318.18,27.71,268.75,27.71Zm0,152c-46.67,0-84.5-32.68-84.5-73s37.83-73,84.5-73,84.5,32.68,84.5,73S315.42,179.71,268.75,179.71Z"/><ellipse class="cls-3" cx="267.83" cy="107.2" rx="76.5" ry="66.51"/><path d="M254.17,63.15c.12-.67.27-1.35-.85-1.71.83-.69,2.26-.15,2.93-.76a.89.89,0,0,1-.87-.14c.23-.73,1.2-.4,1.77-.64a2.57,2.57,0,0,1,.48,0,6.06,6.06,0,0,0,2.92-.09c1.35-.38,3,0,4.58.13.25,0,.49.09.74.11a40.23,40.23,0,0,0,4.85,1.11c3.55,1.38,7.55,2,11,3.57a6.41,6.41,0,0,1,.93.36c1.27.82,2.57,1.27,4.09.28.1-.06.29,0,.43,0s0,.29,0,.44c.65.9.34,1.67-.65,2.32a1.4,1.4,0,0,0-.75,1,2.61,2.61,0,0,1-.78,1,2.77,2.77,0,0,1-2,1.07c-.78,0-1.3-.1-1.51-.66s-.25-1.12-1.34-1.08c-1.24,0-2.49,0-3.12,1a6.56,6.56,0,0,0-.87,2.55,5.09,5.09,0,0,0,0,.55c-.15,1.72-.56,1.94-2.78,1.48a2.44,2.44,0,0,1-1.48-1.09c-.14-.33.13-.65.05-1-.22-.79.35-1.16,1.33-1.28a1.72,1.72,0,0,0,1.21-.57c.31-.43.88-.76.92-1.3a2.41,2.41,0,0,1,.34-.68c.1-.33.47-.57.57-.91a2,2,0,0,1,.24-.4,5.54,5.54,0,0,0,.83-.85,2.76,2.76,0,0,1,.47-.43c.75-.54.58-.94-.34-1.25-2.85-1-5.51-2.2-8.57-2.81a15,15,0,0,0-11,.66,6.27,6.27,0,0,1-3.54.14A.51.51,0,0,1,254.17,63.15Z"/><path d="M266.51,58.56a39.29,39.29,0,0,0,5.56.69,55,55,0,0,1,14.07,3.91,2.88,2.88,0,0,1,1.13.71.2.2,0,0,1-.08.3c-1.21.41-1.8-.49-2.74-.66-5.57-1.66-11.15-3.33-17.23-3.8a8.32,8.32,0,0,1-1.29-.54c-.2-.12-.31-.3-.18-.48S266.21,58.46,266.51,58.56Z"/><path d="M287.16,64.05a.22.22,0,0,1,.11-.18c.61.52-.22,1-.08,1.52-.41.27-.81.55-1.25.8a1.91,1.91,0,0,1-2.17,0,24.91,24.91,0,0,0-6.57-2.65,47.06,47.06,0,0,1-6.51-2.07,1.54,1.54,0,0,1,1.62-.09,23.19,23.19,0,0,0,5.06,1.3,20.28,20.28,0,0,1,3.94,1.1c1.54.57,3.06,1.34,4.87.42C286.44,64.06,286.89,64.31,287.16,64.05Z"/><path d="M266.51,58.56c-.24.1-.82.12-.24.43a9.47,9.47,0,0,0,1.13.44,1.69,1.69,0,0,1-1.9.09,6.08,6.08,0,0,0-2.22-.66c-2.48,0-4.36-1-6.31-1.94-.63-.29-1.5-.56-1.14-1.32,1.6-.46,2.37-.32,3.26.6.1.18.33.2.56.21C261.48,57.89,264.22,57.85,266.51,58.56Z"/><path d="M251.5,59.49h.31a2.17,2.17,0,0,0,1.73-.4c.81-.38,1.56-.5,2,.31-.21.38-.72.74-.1,1.15h1.39c-1.5.89-1.5.89-3.53.88-.34-.52-.41-1.16-1.57-1.19C251.15,60.23,251.26,59.81,251.5,59.49Z"/><path d="M302.85,143c-.15.64-.29,1.28-.44,1.92a.49.49,0,0,1-.3.21,7.22,7.22,0,0,1-2.08-.22c-1.44-.44-1.87-1.56-.69-2.27a1.49,1.49,0,0,0,.68-2.23,28.9,28.9,0,0,0-2.25-3.47c-.31-.52-1.1-.73-1.73-1-.45-.21-1.12-.38-1-.86s.92-.45,1.6-.53c-.69-.41-1.28-.84-1.41-1.52a3,3,0,0,1-4,.5,4.92,4.92,0,0,0-1.84-.93.53.53,0,0,1-.29-.62,1,1,0,0,1,.89-.67c1.53,0,3-.62,4.55-.35a5.48,5.48,0,0,0,2.47.71,3.18,3.18,0,0,1,2.44.91c.94.92.52,1.94.39,2.92-.06.5.06.86.74,1a2.85,2.85,0,0,1,2.16,2.06A17.21,17.21,0,0,1,302.85,143Z"/><path d="M305.21,150.69a1.59,1.59,0,0,1,.27,1.32c-.8.37-1.59.76-2.41,1.1a9.57,9.57,0,0,1-5.3.49.87.87,0,0,1-.3-.66,1.45,1.45,0,0,1,0-.36,31.72,31.72,0,0,1,.79-3.27c.34-1.36.47-1.43,2.81-1.35.77.19,1.58-.05,2.35.1C304.83,148.67,304.78,149.77,305.21,150.69Z"/><path d="M299.11,132.68a2.84,2.84,0,0,0-2.24-.66,2.61,2.61,0,0,1-2.34-.9l.12-.12a.73.73,0,0,0,.49-.57,3.5,3.5,0,0,1,2.28-.49c.75.17,1.51.45,2.07-.24,1.12,0,1.3.53,1.2,1.19,2.5,3.71,2.48,7.7,2.43,11.69l-.28.41a22.44,22.44,0,0,0-.36-4.62c-.46-.54-.31-1.2-.63-1.77-.23-.4-.33-.91-.8-1.15-1-.49-1.45-1-1.14-1.91C300.05,133.13,299.28,133,299.11,132.68Z"/><path d="M297.94,153.56c2-.46,4.43.06,6-1.42a1.44,1.44,0,0,1,1.54-.12c-.09.36-.17.73-.25,1.09-.26,1.61-.75,2-3.34,2.51a4,4,0,0,1-4.07-1.57C297.75,153.87,297.71,153.7,297.94,153.56Z"/><path d="M305.21,150.69c-.6-.8-1.2-1.59-1.79-2.39-.29-.72.69-1.29.49-2a11.82,11.82,0,0,1-3.62-.42c-.55-.22-1.32-.33-.87-1,.9-.32,1.78.28,2.68,0l.31,0c.54-.11,1.2-.1,1.32-.65a1.14,1.14,0,0,1,1.19.46c.61.66.11,1.33,0,2C304.75,148.06,305.19,149.37,305.21,150.69Z"/><path d="M301.86,155.3c.45-.14.89-.29,1.35-.41a2.53,2.53,0,0,0,2-1.78c-.06.51.58,1,0,1.52a5,5,0,0,1-2.79,2,4.46,4.46,0,0,1-4.29-.83,2.65,2.65,0,0,1-.25-2.93c0,.22,0,.44,0,.67s0,.3,0,.45A3.45,3.45,0,0,0,301.86,155.3Z"/><path d="M298.14,155.83a6.52,6.52,0,0,0,5.75-.13c.5-.33.13-1.22,1.33-1.07a3.29,3.29,0,0,1-1.22,1.78c-1.17.41-2.2,1.07-3.66.92C299.08,157.2,298.27,156.78,298.14,155.83Z"/><path d="M304.91,144.73c-.55.05-.82-.27-1.19-.46-.18-.28-.57-.51-.45-1C304.18,143.6,305.37,143.63,304.91,144.73Z"/><path d="M283.57,72.25c-.85.23-.58,1-1.19,1.32s-.56.89-1,1.28l-1.21,1.54a2,2,0,0,0-.72,1.41c0,.84-.4,1.28-1.52,1.5a2.32,2.32,0,0,0-1.88,1.45,2.63,2.63,0,0,1-1.54,1.68,1.43,1.43,0,0,1-.46.07c-1.73-.66-1.86-2-2.4-3.09a.71.71,0,0,1,.1-.3c.31-.28.85-.24,1.21-.47s1-.11,1-.53a8.89,8.89,0,0,0,.21-1.6c0-.23-.44-.24-.74-.27A2.68,2.68,0,0,1,272.2,76c-.23-.33-.11-.62.18-.9s.86.19,1.09-.23a2.32,2.32,0,0,1,.6,0c1.38.51,1.58-.07,1.54-.85a6.89,6.89,0,0,1,.76-3.33c.59-1.25,3.24-2.11,4.89-1.59a1.06,1.06,0,0,1,.77,1c.05.3-.17.87.34.83s1.45.11,1.84-.49a2.64,2.64,0,0,1,.45-.43.67.67,0,0,0,.2,0C285.3,71,284.5,71.66,283.57,72.25Z"/><path d="M276.21,69.34l-.3.65c-.59.86-1.42.8-2.36.31a3.72,3.72,0,0,0-2.89-.66c-.46.12-1.12,0-1.3.45s.6.5.87.79a.43.43,0,0,1,0,.46c-1,.84-2.61.53-3.81,1a7.5,7.5,0,0,1-1.58.31,5,5,0,0,1-1.73-.36,1.85,1.85,0,0,0-1.16-.14,2.58,2.58,0,0,1-3.09-1,1.24,1.24,0,0,0-.63-1,1.73,1.73,0,0,1-.8-1.38c-.06-.37-.1-.77.36-1s1,.06,1.28.32a.69.69,0,0,0,1.07-.06,1.07,1.07,0,0,1,1.42-.21c1.22,1,2.76.94,4.35.86a7.43,7.43,0,0,1,2.4.17c-1-.28-2.08-.37-3.1-.6a11.76,11.76,0,0,1-3.76-1.83,3.37,3.37,0,0,1,1.31-.8,2,2,0,0,1,2,.73,2.16,2.16,0,0,0,1.78.87c2.09.18,4.12.63,6.21.81A6.09,6.09,0,0,1,276.21,69.34Z"/><path d="M251.48,66.51a10.48,10.48,0,0,1,4-1.4,2.94,2.94,0,0,0,1.64-.53c1.11-1.11,2.49-.82,3.78-.34a31.49,31.49,0,0,1,3.46,1.07,4,4,0,0,0,2,.31,87.09,87.09,0,0,0,9.35,2,1.86,1.86,0,0,1,1.14.47l-.09.4a1.37,1.37,0,0,1-1.71.21,8,8,0,0,0-2.58-.55,25.14,25.14,0,0,1-8.23-2,12.6,12.6,0,0,0-4.65-.84c-.82-.12-1.84-.48-1.41.72.12.33-.13.64-.57.83a8.8,8.8,0,0,0-2.57.49c-.87,0-1.67.57-2.6.2-.34-.21-.87-.23-1.14-.52A.32.32,0,0,1,251.48,66.51Z"/><path d="M255.41,59.48c-.6-.5-1.09-.63-1.74,0a1.16,1.16,0,0,1-1.87,0c1.14-.57,1.61-1.5,2.38-2.28.1,0,.22.06.3,0a5,5,0,0,1,5.08,1c.45.41,1.19.32,1.81.44,1.36.26,3,.1,3.93,1.11,0,.13-.1.22-.28.25a12.68,12.68,0,0,1-3.74-.3,1.37,1.37,0,0,0-1.16.1,3.23,3.23,0,0,1-2.53.35h-.33C256.58,60,255.45,60.53,255.41,59.48Z"/><path d="M259.44,64.94a10.3,10.3,0,0,1,4.73.81c3,.91,5.92,2.07,9.34,2.14a3.23,3.23,0,0,1,1.94.55,1.31,1.31,0,0,0,1.39,0l-.62.87c-3.32-1.12-7-1.25-10.47-1.73-.53-.07-1.22-.16-1.21-.51,0-.93-.93-1-1.74-1.25a5.32,5.32,0,0,1-3.4-.74A.53.53,0,0,1,259.44,64.94Z"/><path d="M270.1,70.9c-.41-.19-1.14.55-1.36-.26-.16-.63-.24-1,.94-1.29a4.9,4.9,0,0,1,4.17.64,1.55,1.55,0,0,0,2.06,0,2.57,2.57,0,0,1-.91,1.34,3.11,3.11,0,0,1-2.8.07C271.54,71.09,270.72,71.23,270.1,70.9Z"/><path d="M276.92,68.07c-2.2-.31-4.43-.6-6.58-1-1.32-.25-2.95-.48-3.91-1.43a7.41,7.41,0,0,1,3.77.62,5.51,5.51,0,0,0,2.36.24,3.07,3.07,0,0,1,1.64.39,4.94,4.94,0,0,0,3.49.47C277.64,67.71,277.24,67.87,276.92,68.07Z"/><path d="M270.42,72a4.94,4.94,0,0,1,1.83,2l1.21.91a4.41,4.41,0,0,1,.3.33c-.43.25-.82,0-1.24-.07a2.2,2.2,0,0,1-1.47-.58c-.89-.76-2.28-1.06-3.21-1.79-.24-.19-.55-.31-.59-.6A4.46,4.46,0,0,1,270.42,72Z"/><path d="M277.44,63a19.55,19.55,0,0,1-5.29-1.32,4,4,0,0,0-1.46-.22,30.93,30.93,0,0,1-4.88-1.11c-.13-.2-.71,0-.63-.4l.05-.07a1.85,1.85,0,0,1,1.55-.17c2.78.58,5.71.82,8.27,1.9a4.81,4.81,0,0,0,1.48.69C277,62.42,277.58,62.47,277.44,63Z"/><path d="M265.19,60l.63.4-4.62-.41c-.19,0-.51,0-.56.06-.9,1.23-2,.35-3,.17a3.47,3.47,0,0,0,2.07-.5,2,2,0,0,1,1.71-.16A12.51,12.51,0,0,0,265.19,60Z"/><path d="M255.41,59.48c.33.63,1.3.35,1.84.68-.5.36-1.31,0-1.8.4-.6,0-.93-.11-.92-.58S254.92,59.46,255.41,59.48Z"/><path d="M275,61.89c-2.61-.84-5.5-1-8.12-1.88a7.85,7.85,0,0,0-1.64-.13,11.64,11.64,0,0,0-4.16-.83,2.92,2.92,0,0,1-2.27-.83,2.68,2.68,0,0,0-3.33-.68c-.58.24-1.07.23-1.28-.32.47-.51.78-1.11,1.59-1.42a19.84,19.84,0,0,0,4.93,2.28c1.77.44,3.79.33,5.37,1.28.28.17.88.06,1.33.08a44.38,44.38,0,0,1,12.76,2.47c1.49.55,3.09.85,4.63,1.29a3.4,3.4,0,0,1-3.1.09,31.29,31.29,0,0,0-5.2-.93A3.58,3.58,0,0,1,275,61.89Z"/><path d="M275,61.89a12.5,12.5,0,0,0,3.72.23,2.36,2.36,0,0,1,1.43.26,10.49,10.49,0,0,0,4.63.82c.91.12,1.34.93,2.38.86-.43.33-1.09.39-1.44.87s-1,.2-1.66.12c-1.83-.25-3.24-1.15-4.95-1.57-.57-.14-1.11-.31-1.67-.47C276.78,62.45,275.37,62.77,275,61.89Z"/><path d="M292.12,134.42a11.26,11.26,0,0,1-2.46-2c.83-.36,1,.28,1.42.51a2.92,2.92,0,0,0,2.52.62c.61-.18,1.72,0,.66-.86-.29-.23,0-.42.37-.38s.74.15.78.28c.33,1.07,1.65,1.57,2.73,2.33-1.05.27-1.94-.35-2.75.06,0,.09,0,.15,0,.16,3.61,1.12,4.24,3.67,5.46,5.92.3.56.29,1.26-.78,1.57-.69.2-1,.53-.94,1.1s.76.82,1.46,1c.49.09,1,.15,1.48.23-.84.51-1.8-.21-2.65.14a.9.9,0,0,1-.59-.14c-.42-.25-.29-.66-.55-1s-.12-.66-.41-.93l-.63-.9a6,6,0,0,1-2.91-2.86A22.92,22.92,0,0,0,292.12,134.42Z"/><path d="M299.11,132.68c.9.17,1.43.48,1,1.23a.45.45,0,0,0,.27.68c2.49.75,2.11,2.32,2.13,3.78a4.51,4.51,0,0,0-2.87-1.72c-.67-.14-.51-.64-.37-1.05A2.86,2.86,0,0,0,299.11,132.68Z"/><path d="M289.34,132l-.88-.68c0-1.06,1.41-.62,2.08-1a4.51,4.51,0,0,1,.52,0c.86,0,1.67.24,2.54.23.43,0,.95,0,.93.51h0c-1.46-.1-2.75.65-4.26.41C289.88,131.48,289.62,131.84,289.34,132Z"/><path d="M298.9,144.84l.54.24a5.89,5.89,0,0,0,4.08.73c.43-.11.89-.28,1.08.22a7.93,7.93,0,0,1-3.42,2.28,2.77,2.77,0,0,1-.88.1c-1.35-.33-1.6.17-1.49,1-.49,0-.67-.22-.63-.47a9,9,0,0,0-.38-2.72C297.71,145.53,297.94,145,298.9,144.84Z"/><path d="M298.9,144.84a1.73,1.73,0,0,0-.67,2.11c.23.81.06,1.66.58,2.43a19.14,19.14,0,0,0-.84,3.29c0-.43-.08-.87-.13-1.3,0-.22,0-.45,0-.67-.73-.61-1-1.25-.3-2,.1-.16.32-.34.28-.48a7.58,7.58,0,0,1,0-4.35.57.57,0,0,1,.64,0A1.12,1.12,0,0,1,298.9,144.84Z"/><path d="M301.18,148.3A7.38,7.38,0,0,1,304.6,146a3.56,3.56,0,0,1-1.18,2.28C302.67,148.29,301.93,148.73,301.18,148.3Z"/><path d="M300.93,128.05a5.49,5.49,0,0,1-2.16,1.74c-.21.45-.72.46-1.25.43l-2.42.41c-.6.39-1.31.08-2,.15-.25,0-.64.09-.71-.2s.31-.32.53-.45c.5-.18,1.1-.06,1.6-.26-.58.22-1.29.06-1.84.34a2.87,2.87,0,0,1-1.28.25c-.76,0-1.51-.14-2.26-.23-1.2-.15-1.43-.68-.73-1.48.3-.25.31-.55-.2-.54a22.3,22.3,0,0,1-7.47-1.53,7.76,7.76,0,0,0-2.83-.29,4.55,4.55,0,0,1-2-.6,5.35,5.35,0,0,0-2.37-1.13c-.51-.11-1.24-.24-1-.76s.85-.27,1.35-.16c4.12.92,8.35,1.51,12.53,2.24l2.5.44a26,26,0,0,0,4.18.44,27.32,27.32,0,0,1-3.6-.35c-4.95-.92-10-1.57-14.9-2.63a8.68,8.68,0,0,1-1.14-.3,4.82,4.82,0,0,0-1.35-.49c-.76-.11-1.45-.39-1.29-1s1.1-.57,1.77-.51c1.89.19,3.77.46,5.64.75a71,71,0,0,0,14.07,1.23c.4,0,.75.16,1.14.19a10.26,10.26,0,0,1,3.49.75.67.67,0,0,0,.66,0,1,1,0,0,1,.43,0,13.21,13.21,0,0,1,2.79,2C301.47,126.92,301.67,127.52,300.93,128.05Z"/><path d="M293.24,130.24l-1.08.51,2.94-.11.65.18a1.54,1.54,0,0,1-1.22.3c-1.11-.42-2.45,0-3.55-.51-.1-.39.42-.2.6-.33l1.08-.24C293,129.89,293.27,129.84,293.24,130.24Z"/><path d="M297.52,130.23l1.25-.43.75,0C299.24,131,298.29,130.39,297.52,130.23Z"/><path d="M301.86,155.3c-2.19.62-3.35.24-3.93-1.29C299.08,154.7,300.05,155.66,301.86,155.3Z"/><path d="M239.89,153.33c-.29-.42-.51-.84,0-1.28,2.09.39,2.51.23,3-1.25.12-.34,0-.72.38-1,1.17-1.13,2.71-2,3.69-3.27s.87.11,1.29.22a2.67,2.67,0,0,0,.73.39c1.57.47,1.73.89.46,1.85a9.22,9.22,0,0,0-3.19,3.89,3.45,3.45,0,0,1-1.94.59,12.53,12.53,0,0,0-1.65.46A2.66,2.66,0,0,1,239.89,153.33Z"/><path d="M247.75,147c-.54.09.27-1.06-.82-.46-.07-.42.31-.85-.56-1.18s-.32-1-.12-1.46h.05c.68-.15,1.07-.71,1.87-.69,1.08.13,2.17.28,3.24.46a2,2,0,0,1,1.12.83c-.8,1.42-2.48,2-4.38,2.42A2.59,2.59,0,0,1,247.75,147Z"/><path d="M241.39,154.47l-1.26,0c-.78-.3-.65-.69-.24-1.12,1.49.75,2.86,0,4.28-.18a1.47,1.47,0,0,0,1.38,0A10,10,0,0,0,248.1,152c.83-.61,1.54-1.38,3-1.11.41.57-.25.85-.64,1.21-.57.52-1.54.72-2,1.31a1.77,1.77,0,0,1-.35.23,18.24,18.24,0,0,1-5,1.17A2.68,2.68,0,0,1,241.39,154.47Z"/><path d="M243.24,149.79c.21.66.47,1.32-.4,1.88-.44.28.13.6.11.93-.8.2-1.59-.15-2.41.12s-.58-.37-.71-.66Z"/><path d="M298.54,143.89h-.64c-.25,0-.63.19-.42-.21a6.16,6.16,0,0,1,.41-.63A1.26,1.26,0,0,1,298.54,143.89Z"/><path d="M238.36,130.91c0-.14,0-.28,0-.42,1-.4,1.42.24,1.91.65,1.23,1,1.54,1,2.51-.08a5,5,0,0,1,1-.95c.9-.59.58-.82-.46-.86a6.1,6.1,0,0,1-3.14-1.16c-.57-.47-.54-.85.45-1a19.06,19.06,0,0,0,2.63.28c.86.33,1.9.32,2.71.73a5.67,5.67,0,0,0,2.08.49c.61,0,1.19.16,1.28.71a.88.88,0,0,1-.24.62c-.32.46-.14,1-.3,1.45s-.25.93-.88,1.19a2,2,0,0,1-.92.1,1.31,1.31,0,0,0-1.89.45,5,5,0,0,1-1.7,1.49,1.86,1.86,0,0,1-2.62-.19,1.46,1.46,0,0,1-.63-1.1C240.22,132.27,239,131.69,238.36,130.91Z"/><path d="M240.78,134.44a2.83,2.83,0,0,0,3.75-1.37c.72-1.15,1.2-1.27,2.39-.63,0,.52-.48.87-.84,1.25a1.8,1.8,0,0,0-.12,2.65,23.52,23.52,0,0,1,1.75,2c.32.54.66,1.1.42,1.68s-.62,1.23-1.8.76l-.87-.87-.38-.45A29.25,29.25,0,0,1,240.78,134.44Z"/><path d="M246.32,140.8c1.23,0,1.52-.57,1.34-1.34a5.28,5.28,0,0,0-1.87-2.59c-1.66-1.43-1.27-3,1.13-4.43h.88c.83,0,.54.42.44.68a6.61,6.61,0,0,1-1,2c-.53.64-.42,1.18.49,1.6a3.82,3.82,0,0,1,1.1.75c.29.3.38.67.74,1,.81-.58.74-1.89,2.56-1.59.11.08.27.16.26.26-.15,2,.68,3.8,1.31,5.67-.59,1.22-.86,1.36-2.26,1.13a7.75,7.75,0,0,1-3.33-.47c-.41-.31-1.15-.48-1-1.07C247,141.8,246.36,141.39,246.32,140.8Z"/><path d="M247.17,142.35c.32.36.85.62,1,1.07-.65.06-1.1.55-1.84.44.41-.4.27-.35,0-.76S246.47,142.36,247.17,142.35Z"/><path d="M237.16,128.73c-.42-.43-.26-.91-.27-1.38.63-.15.77-.61,1.14-.92a1.42,1.42,0,0,1,.42-.06c.76.33,1.92.19,2.29,1-.27.08-1.09-.07-.37.43a9.22,9.22,0,0,0,3.17,1.15c.36.15,1,.12.91.58s-.49.48-.87.52c-1.76.21-3.55.58-5.22-.25C238.23,129.28,237.72,129,237.16,128.73Z"/><path d="M238.35,129.8a41.36,41.36,0,0,0,5.1-.12c1.42-.22.36-.47.07-.72.54,0,1.17-.09,1.43.39s-.27.68-.65.89c-.74.42-1,1.06-1.53,1.58a1.55,1.55,0,0,1-2.41,0c-.59-.51-.89-1.25-2-1.37C238.36,130.26,238.36,130,238.35,129.8Z"/><path d="M274.36,82.31a3.85,3.85,0,0,0,1.25-1.92,2.33,2.33,0,0,1,2.16-1.5c1.19-.12,1.49-.51,1.56-1.27a1.31,1.31,0,0,1,.85-1.22,4.93,4.93,0,0,0-.4,4.21c.6.32.51.8.55,1.25a4.82,4.82,0,0,0,.26,1.94,1.14,1.14,0,0,1-.46,1.42,2,2,0,0,1-2.66-.52A6.09,6.09,0,0,0,274.36,82.31Z"/><path d="M281.4,74.85c-.27-.66-.54-1.33,1-1.28C282.23,74.07,282.14,74.58,281.4,74.85Z"/><path d="M271.89,79.3c.94,1,1.09,2.18,2.19,3.07,1.32.65,1.82,1.73,2.58,2.65s1.15,1.62,1.71,2.44a1.9,1.9,0,0,1,.32.75c-.09.74.68,1.34.67,2.07.12,1-.26,2.09.46,3.08a1.09,1.09,0,0,1,.12,1,1.78,1.78,0,0,0-.14.75c.41,2.25.41,2.25-1.28,4.4.67-.59,1.2-1.21,1.84-1.77a1,1,0,0,1,.91-.28.72.72,0,0,1,.57.6,1.11,1.11,0,0,1-.52,1.32c-1.62.92-2.7,2.3-4.72,2.88a60.39,60.39,0,0,1-9.42.51c-.65-.29-1.86-.09-2-.8s.9-1,1.61-1.33a2.32,2.32,0,0,0,.52-.4c1.13-1,3.05-1,4.28-1.7-1.15,0-.75-.61-.36-1,.68-.73,1.24-1.52,2-2.21,1.93-1.83,2-4,2.46-6.11.25-1.12.05-2-1.83-2.33a2.37,2.37,0,0,1-1.16-.49c-.67-1-.67-2.23-1.38-3.31a3.15,3.15,0,0,0-2.57-1.8c-.36-.3-.29-.67-.28-1a.79.79,0,0,1,.17-.52A3.49,3.49,0,0,1,271.89,79.3Z"/><path d="M278,87.6l-3.92-5.23a1.36,1.36,0,0,1,.29-.06c2.32-.39,2.69,1.06,3.43,2a2.07,2.07,0,0,0,2.1.86A6.32,6.32,0,0,1,281,89.72c-.11.56-.38,1.17-1.48.63a3.1,3.1,0,0,1-.43-1.66A1.1,1.1,0,0,0,278,87.6Z"/><path d="M271.4,74.38l1.12.74a1,1,0,0,1-.28.82c-.48,1,.31,1.93.6,2.89.08.16.35.35.12.47-.43.22-.65-.22-1-.26a8.14,8.14,0,0,1-2.77-.78c-1.81-.65-2.53-1.87-1.89-3.23a2.48,2.48,0,0,1,2,.26c.23.17.47.46.68,0a.75.75,0,0,0-.09-.25,4,4,0,0,1-.48-.78.42.42,0,0,1,.12-.29A1.76,1.76,0,0,1,271.4,74.38Z"/><path d="M272.83,78.83c-1.74-1.57-1.78-1.75-.6-2.89.54-.07,1.08,0,1.61-.07,1.38,0,1.24.44.9,1.08a1.65,1.65,0,0,0-.29.71C274.57,78.92,274.47,79,272.83,78.83Z"/><path d="M269.48,78.12a3.63,3.63,0,0,1,2.46.93c0,.09,0,.17-.05.26-.89.48-2,0-2.94.4C268.35,79,268.38,78.48,269.48,78.12Z"/><path d="M259.12,71.11c.35.25.89.34,1.15.69.14.18.54.43.73.3,1.53-1.18,2.6.2,3.89.33a.61.61,0,0,1,.36.36c.06.3.27.6-.08.88a1.49,1.49,0,0,1-.82.16c-1-.15-1.89-.48-2.89-.59-.24.34.35.85-.43,1.05a2,2,0,0,1-1.26-.56,4.53,4.53,0,0,0-2.16-1.67,3.56,3.56,0,0,1-3.54-2.33c-1.23,1.24-.74,2.42.19,3.59.22.32.78.48.77.9a.43.43,0,0,1-.19.27c-1.15.24-.61.77-.36,1.2,1.17,2.1,2,4.32,4,6.13.46.41.93.92.24,1.47a1,1,0,0,0-.27.39,4,4,0,0,1-.05.6c-.11.51.15,1.13-.77,1.41-.61.08-.72-.41-1.16-.52s-.76-.17-1.09-.34a1.27,1.27,0,0,1-.28-.23c-.14-.33-.55-.63-.29-1,.71-.87.16-1.6-.51-2.29a6.3,6.3,0,0,1-1.69-2,7.7,7.7,0,0,0-1.29-4.67,3.92,3.92,0,0,1-.64-1.91c0-.29-.1-.67.39-.75,1.61-.26.82-1.06.44-1.44-.7-.7-.74-1.16.29-1.62.56-.24.24-.89.94-1.07.5-.08.89-.36,1.39-.41,1-.1,1.9,0,2.24.78a4.23,4.23,0,0,0,2.53,2.45C259.11,70.7,259.11,70.93,259.12,71.11Z"/><path d="M259.12,71.11c-.91-.48-2-.76-2.59-1.56a3.8,3.8,0,0,1-.56-.76c-.44-1.25-1.19-1.45-2.58-.65-.06,0-.26,0-.39-.08-.55-.44-1.59.44-2-.39.25-.72.9-.73,1.69-.49.92.49,1.58-.41,2.44-.23s1.63-.17,2.45-.23a1,1,0,0,0,.24-.92c-.32-1,0-1.21,1.62-.85l0,0c-.4.4-.27.63.39.78a2.81,2.81,0,0,1,1.72.77c1.5-.06,2.11,1,3.33,1.32a19.55,19.55,0,0,0,5.48.73c-1.1.49-1.67.87-2.68.64a5.94,5.94,0,0,0-2.41,0c-.4.08-.94.24-1.17,0a1.06,1.06,0,0,0-1.78.22c-.52-.18-.17-.54-.46-.71S261.72,68,261,68c-.51,0-.62.43-.69.77a.55.55,0,0,1-.53.47.74.74,0,0,1-.68-.36c-.26-.3-.38-.69-.89-.86a1.52,1.52,0,0,0,.55,2.1C259.13,70.41,259.7,70.65,259.12,71.11Z"/><path d="M264.94,72.86c0-.14,0-.29-.05-.43a27.75,27.75,0,0,1,5.2-1.09l.33.66a16.3,16.3,0,0,0-3.05.21c.11.54.83.71,1.3,1s.79.55.8,1h0c.43.53-.05.52-.47.52.4.09.9.22,1.39.35h0c.09.86-.63.57-1.22.44a9.46,9.46,0,0,0-1.86-.4.88.88,0,0,1-.56-.1,6.14,6.14,0,0,1-.72-.5c-.3-.59-1.68-.18-1.75-1h.93C266,73.12,264.89,73.11,264.94,72.86Z"/><path d="M261.53,66.52c-1,0-1.86-.64-2.95-.52-.07,0-.29-.22-.28-.32.08-.45.52-.66,1.12-.71,1.07.4,2.41.25,3.36.88C262.83,66.53,262.15,66.5,261.53,66.52Z"/><path d="M257.58,66.72c-.72.62-1.45,1.16-2.45.23C255.94,66.82,256.63,66.06,257.58,66.72Z"/><path d="M258.38,58.7c-.16.36-.56.36-.89.3-.75-.12-1.54-.29-1.64-1-.07-.43.49-.43.87-.36A2.77,2.77,0,0,1,258.38,58.7Z"/><path d="M269.47,74.2c-.66-.43-1.31-.87-2-1.29-.37-.23-.55-.43-.11-.7,1.33.74,3,1.19,4,2.18C270.77,74.24,270.22,73.69,269.47,74.2Z"/><path d="M254.55,141.63l.62.06,3,2.86.3.87c-.35.68-1,.36-1.29.08a7.85,7.85,0,0,1-1.79-1.94,3.2,3.2,0,0,1-.71.56,2.9,2.9,0,0,1-2.34.4,1.81,1.81,0,0,1-.9-.64,2,2,0,0,0,1.92-1.16l.23-.37c.16-.21.33-.39.68-.19l-.2-.16C254.08,141.77,254.18,141.61,254.55,141.63Z"/><path d="M288.13,131.35l-.3-.65c1.28-.75,1.63-.76,2.74,0-.63.33-1.66,0-2.1.66Z"/><path d="M290.56,130.7c-.91-.43-1.82-.06-2.74,0a.83.83,0,0,1-.85-.84c0-.07-.06-.15,0-.22.16-.37-.82-.71-.11-1.06a2.09,2.09,0,0,1,1.71.14.64.64,0,0,1,.24.25c-.92.5-.31.91.33.93.88,0,1.63.3,2.46.39l-.6.34A2,2,0,0,0,290.56,130.7Z"/><path d="M292.7,123.87c-5.71.36-11.18-.72-16.7-1.47-1.15-.16-2.28-.35-3.44-.46-.45,0-1.18-.24-1.31.23s.51.59,1.05.61a2,2,0,0,1,1.5.64,3.94,3.94,0,0,1-2.73-.14c-.7-.19-1-.19-1.27.15a2.41,2.41,0,0,1-1.72-.25,1.25,1.25,0,0,1-.47-.47,2.89,2.89,0,0,1,.26-2,39.1,39.1,0,0,0,1.45-5.09c.25-1.49,1-1.88,3.12-1.52a.35.35,0,0,1,.21.31c-.45.56-1.08,1-1.21,1.73s-.05,1.15.88,1.56c1.49.66,1.49,1.46.14,2.12-.29.14-.7.22-.64.54s.58.46,1,.51c2.71.29,5.41.66,8.08,1.1,3.67.6,7.39.93,11.11,1.26C292.41,123.35,292.82,123.48,292.7,123.87Z"/><path d="M278.06,126.29a.35.35,0,0,1-.06-.19,14.1,14.1,0,0,1,5.69,1.12,21.75,21.75,0,0,0,4.84.7c.41,0,1.07,0,1.2.33s-.6.48-.93.71l-.14-.09a59.93,59.93,0,0,0-6.33-.93,2.12,2.12,0,0,1-1.1-.24C280.38,127,279,126.87,278.06,126.29Z"/><path d="M297.59,124.54l.46.87a8.66,8.66,0,0,0-4.41-1.31c-.18-.26,0-.42.29-.56a4.66,4.66,0,0,1,3.57.85A1,1,0,0,1,297.59,124.54Z"/><path d="M289,126.54l.6-.22,4.73.56A15.14,15.14,0,0,1,289,126.54Z"/><path d="M298,122.75c.54.61-.26,1.19-.08,1.8h-.28c-.38-.31-.92-.54-1.06-1,0-.3-.19-.63.24-.86S297.56,122.79,298,122.75Z"/><path d="M293.24,130.24l-.58-.21a8.13,8.13,0,0,1,2.72-.34A3.56,3.56,0,0,1,293.24,130.24Z"/><path d="M293.94,123.66l-.29.43a1.29,1.29,0,0,1-.94-.22l-.63-.41.16-.13A1.53,1.53,0,0,1,293.94,123.66Z"/><path d="M246,152.7c0-1.59,1.44-2.64,2.71-3.75.29-.25.6-.49.88-.74s.39-.38.21-.6-.51-.16-.81-.08c-.74.2-.66-.57-1.26-.55l.09,0a16,16,0,0,0,3.31-1.26,4.22,4.22,0,0,1,1.75-.3,2.26,2.26,0,0,1,1,.36c.14.65-.72.54-1,.75a2.87,2.87,0,0,0,2-1.29c.39-.36.75-.94,1.49-.65s1.1.74.73,1.36c-.19.32.05.56.29.79-.16,1.25-1.68.91-2.67,1.14a8.63,8.63,0,0,1-1.51-.05c-.57,0-.92,0-1.21.61-.38.83-1.79,1.3-2.6,2.05-.3.28-.5.49-.48.83s-.41.43-.63.64A2.64,2.64,0,0,1,246,152.7Z"/><path d="M246,152.7l2.11-.89c.26.08.17.28.25.42a7.57,7.57,0,0,1-3.55,1.33c-.32,0-.94.18-.66-.39A7.5,7.5,0,0,0,246,152.7Z"/><path d="M253,145.66a7.43,7.43,0,0,0-3.5,1.07,2.57,2.57,0,0,1-1.69.23c0-.23,0-.47.4-.5,1.83-.15,2.89-1.13,4.13-1.93l2.16-.67c.85.14.49.39.11.64a6.23,6.23,0,0,1-.91.39,6.41,6.41,0,0,0,1-.43c.45.39.36.8-.3,1.07A2,2,0,0,1,253,145.66Z"/><path d="M248.37,152.22l-.25-.42.58-.45c0-.62.69-.9,1.24-1.27a11.4,11.4,0,0,1,5.15-2.32c.56-.07,1.08-.27,1.43.22.07.34-.19.58-.55.72-1.7.63-3.19,1.49-4.82,2.2h0A5.42,5.42,0,0,0,248.37,152.22Z"/><path d="M251.15,150.89c1.24-1.42,3.42-1.94,5.22-2.81a18.25,18.25,0,0,1,1.85-1.63c.85.05.41.71.87,1,.12.57-.34.91-.94,1.14-2.07.8-4.16,1.58-6.25,2.34A2.33,2.33,0,0,1,251.15,150.89Z"/><path d="M259.09,147.4c-.74-.06-.46-.63-.85-.87-.32.05-.51.43-.95.21-.37,0-.8.31-1.1,0s.12-.47.22-.7.85-.48.27-.86a1,1,0,0,0-1.56.23,1.13,1.13,0,0,1-1.15.51c-.34,0-.71,0-.95-.24a3.51,3.51,0,0,0,1.75-.77c.25-.22,0-.3-.25-.35h0c0-.23.47-.46,0-.69l1.08-.94c.26.84,1.15,1.32,1.59,2,.25.39.5.83,1.3.5C259.55,146,259,146.73,259.09,147.4Z"/><path d="M251.79,136.85a3.42,3.42,0,0,0-1.85,2.56,1.7,1.7,0,0,1-1.07-1.1,2.37,2.37,0,0,0-1.58-1.39c-1.18-.38-1.33-1.1-.71-1.71.78-.77.65-1.75,1.4-2.49,0,0-.12-.18-.19-.27l.63-1.09a.53.53,0,0,1,.25.12c1.1,1.44,1.79,3,3.19,4.36A.61.61,0,0,1,251.79,136.85Z"/><path d="M251.79,136.85a4.91,4.91,0,0,0-1.66-2.29c-1.07-.88-1.06-2.15-1.71-3.2.09-.52-.11-1.07.26-1.57a.5.5,0,0,1,0,.13c.67,1.06.92,2.24,1.85,3.21.47.49.67,1.19,1.75,1.23a2.42,2.42,0,0,1,1.11.94c.17,1.13.62,2.27-.44,3.32.1.81-.28,1.64.29,2.42.9.42.61,1,.33,1.54l-.25.17c-.84-1.75-1.63-3.5-1.31-5.4C252.1,137.18,251.89,137,251.79,136.85Z"/><path d="M245.71,126.53c1.63.33,3.14-.25,4.72-.32.74,0,1.48-.18,2.64-.34a18.83,18.83,0,0,1-4.53,1.41c-.46.11-1.24.07-.68.74.29.35-.33.4-.6.43a12.71,12.71,0,0,1-1.51,0c-.69-.54-1.81-.35-2.57-.77a.59.59,0,0,1,.18-.27C244.27,127.29,244.62,126.4,245.71,126.53Z"/><path d="M240.74,127.36a12.86,12.86,0,0,1-2.43-.82s0-.08.06-.1c1.32-.74,4.35-.06,4.92,1.1l-.11.13A4.2,4.2,0,0,1,240.74,127.36Z"/><path d="M237.73,126.31c-.37-1.15.68-1.87,1.52-2.65,1.27-.34,1.4-1.33,2.15-2,.13-1,1.15-1.57,1.76-2.34l1.24-1.13a5.64,5.64,0,0,0,1-.84c.3-.26.62-.51,1-.75.66-.51,1.36-1,2-1.47.45-.35,1-.62,1.46-1a7.21,7.21,0,0,1,.81-.62,2.75,2.75,0,0,0,.59-.39c1.27-.72.77-1.88,1.35-2.78a6.73,6.73,0,0,1,4.15-2.88c.73-.15,1.69.5,2.21-.34.4-.39.13-.94.59-1.32a1,1,0,0,1,.88,0c.33.16.64.33.64.66-.81.36-.4,1-.69,1.51-.12.23-.34.46-.15.72.5.68,0,1.16-.58,1.63a1.08,1.08,0,0,1-.33.2c-1.27.15-1.78-.71-2.6-1,1,.51,2.12,1,1.65,2.22-.31.79-.84,1.08-1.88.78a8.18,8.18,0,0,1-2.36-.92c1.1.57,2.33,1,3.51,1.45.43.17,1,.27.93.74s-.63.43-1.06.52-.65.06-.82.26c-.91,1.11-2.53,1.41-4,1.82-2.7.74-4.35,2.36-6.19,3.8a29,29,0,0,1-4,2.81c-.8.44-1.27.92-.45,1.64.55.48.41,1.05-.17,1.5a1.57,1.57,0,0,1-1.89.06c-.69-.4-1.24,0-1.84.14A.69.69,0,0,1,237.73,126.31Z"/><path d="M237.73,126.31l.31,0c.11,0,.15.08.11.12a.15.15,0,0,1-.11.06c-.32.32,0,1.11-1.15.84Z"/><path d="M238.05,126.51a.54.54,0,0,0,0-.18,2,2,0,0,1,2.18-.18,1.14,1.14,0,0,0,1.44-.25c.33-.37.5-.79-.07-1.08-1.6-.82-.53-1.52.34-1.95,2.54-1.28,4.28-3.1,6.39-4.67a13,13,0,0,1,5.47-2.46c1-.19,1.94-.45,2.31-1.26s1.55-.28,2.42-.75c-1.74-.27-2.75-1.16-4.18-1.54a2.21,2.21,0,0,1-.81-.48c-.35-.29-.1-.56.22-.76s1.07,0,1,.1c-.28.83.71.79,1.25,1s1.37.69,1.7.13.9-1.31-.37-1.81c-.73-.29-1.13-.91-2-1.16a3.91,3.91,0,0,1,2.79.71c.37.17.56.71,1.23.35.89-.32,1.4.23,2,.49,1.33.58,2.24,1.65,4.07,1.65a1.36,1.36,0,0,1,1.05.72,1.09,1.09,0,0,0,1,.6c.81.21,1.22.62,1.2,1.24,0,1.31-.88,2.38-1.78,3.44-.31.37-.71.73-.28,1.19-.88,2-2.52,2.65-5.58,2.13a10,10,0,0,0-1.27-.13c1.23.41,3.17-.18,4.56.85,0,.21-.21.26-.4.34l-1.18,0a61.49,61.49,0,0,0-11.39,1.41c2-.53,3.87.11,5.81.1,0,0,.06.11,0,.19-3.78.87-7.77,1.12-11.54,2-.4.84-1.33,1-2.42,1a7.55,7.55,0,0,0-5-1Z"/><path d="M279.61,90c.47.51.86.6.89-.14a5.46,5.46,0,0,0-.17-2.27,4.88,4.88,0,0,1-.44-2.42c.56-1.09-.15-2.18.05-3.27l3.35,5.81c-.52.16-.49-.32-1.06-.1.9,1.11,0,2.7,1.86,3.69.27.14.29.6.3.92,0,.72.49,1.21,1.35,1.54-.43.78-1.29,1.46-1,2.4a.94.94,0,0,1,.33,1.35c-.61.54-.92.1-1-.23-.25-.87-1-1.58-1.29-2.62-.12.51,0,.9-.47,1.13a1.16,1.16,0,0,1-1.19-.7A38.74,38.74,0,0,1,279,90.25c-.07-.68-1.05-1.21-.65-2C279.55,88.55,279.25,89.41,279.61,90Z"/><path d="M267,74.9l.37.22c-.06.77.72,1.41.7,2.19,0,.38.47.42.9.36s.54.19.55.45A2.77,2.77,0,0,0,269,79.7c0,.14-.06.28-.08.42A6.09,6.09,0,0,0,267.72,82c-.6,1.57-1.9,3-2.19,4.62a1.74,1.74,0,0,0-.09.75c.13.42.47.79.56,1.21.11.27.18.54-.1.78a1.74,1.74,0,0,1-1.87-.66A3.34,3.34,0,0,0,262,87.28a.39.39,0,0,1-.27-.47c.15-.38.66-.61.82-1,.23-.59.33-1.13-.75-1.34-1.47,0-1.69-1-2.57-1.52-.27-1,.88-1.42,1.75-1.77,2.51-1,4.27-2.36,4.66-4.5C265.72,76,265.44,75.07,267,74.9Z"/><path d="M272.87,86.29a2.42,2.42,0,0,1,1.56.32c.5.33,1,.63,1.69-.14.5,4.57-.95,8.41-5.13,11.74,1.05.1,1.19-.65,2.22-.57a6.07,6.07,0,0,1-3.41,1.89,7.59,7.59,0,0,0-2.16.83c-.58,0-.54-.29-.52-.57a.79.79,0,0,1,.21-.28c1-.75,2.16-1.43,1.51-2.69-.15-.3.17-.64.45-.9,1.68-1.58,2.45-3.51,3.8-5.21.62-.77-.78-.82-.86-1.33a6.5,6.5,0,0,0,0-1.92A1,1,0,0,1,272.87,86.29Z"/><path d="M284.18,102.55a11.58,11.58,0,0,0-5.22-.72,7.85,7.85,0,0,1-2.11,0c1.55-.7,2.43-1.91,4-2.63.79-.37.7-1,.37-1.71a12.87,12.87,0,0,1-4,3.08c.65-1,1.37-2,1.95-3,.11-.2.48-.38.46-.55-.19-1.3-.06-2.64-.73-3.9-.05-.09-.24-.21-.2-.26.59-.86-.25-1.8.26-2.66,1.46,1.24,1.6,2.87,2.44,4.29.25.42.23.95.91,1.21,1.33.86,1.23,2.13,1.69,3.22.38.9.49,1.83,1.55,2.56C286.31,102,285.78,102.43,284.18,102.55Z"/><path d="M272.87,86.29a11.94,11.94,0,0,1-.29,3.31c.07.1,0,.2-.08.27-.93.12-1-.41-1.06-.82-.13-.59-.4-.63-1.08-.32-1.84.83-1.92.79-2.39-.74a20.72,20.72,0,0,1,.58-6.46.77.77,0,0,1,.36-.3c1.69-.39,1.94-.22,2.47.92C272,83.51,273.11,84.77,272.87,86.29Z"/><path d="M277.22,96.49c.31.92-3.69,4.66-6,5.46C273.18,99.91,275.19,98.28,277.22,96.49Z"/><path d="M274.05,98.43a19.55,19.55,0,0,1-4.65,3.5l-.33-.22,4.57-3.55Z"/><path d="M267.37,99.7c0,.23,0,.48.27.66-.45.71-1.73.83-2.18,1.63.48.22,1.2,0,1.59.34a4.93,4.93,0,0,1-2.71-.43c-.68-.25-.49-.65-.11-.89A6.92,6.92,0,0,1,267.37,99.7Z"/><path d="M279.61,90l-1.28-1.74L278,87.6c1-.43,1.59-.13,1.55.63C279.51,88.83,279.91,89.42,279.61,90Z"/><path d="M268.91,81.23a1.8,1.8,0,0,0-.08.21.77.77,0,0,1-.54.42c-.32,0-.66.22-1,0a1.77,1.77,0,0,1,1.52-1.7C268.88,80.49,268.9,80.86,268.91,81.23Z"/><path d="M270.4,75.08c-1,.34-1.73-.33-2.62-.43-.17,0-.46-.33-.17-.55s.45,0,.69,0,.68.91,1.18.08C270.05,74.35,270.19,74.73,270.4,75.08Z"/><path d="M269.19,75.52c.47-.06,1.07.08,1.22-.44.64.81-1,.77-.79,1.49C269.05,76.17,269.26,75.83,269.19,75.52Z"/><path d="M253,79.24l-2.15-1.75a12.6,12.6,0,0,1-1.33-4.31,7,7,0,0,1,1.1-4.24,10.54,10.54,0,0,0,.55-1.12c.6.1,1.37-.5,1.81.23-1.18.37.7.63.07,1s-1.22.07-1.67.45c-.15.13-.18.35,0,.39,2,.63.43,2,1.37,2.87-.88,0-.91-.68-1.62-.59C251.21,74.57,253.91,76.66,253,79.24Z"/><path d="M258.19,83.15c.19-.18.71-.26.4-.6a13.66,13.66,0,0,0-2-2.17c-.68-.51-1.27-1.11-1.27-1.69,0-1.71-1.84-2.89-2.11-4.56a2.94,2.94,0,0,1,1.59.27,6.24,6.24,0,0,1,2.56,1.09c0,.6-.82.4-1.17.67.19.27.67.33.84.6-.75,1.09.19,1.88,1,2.7a2.5,2.5,0,0,0,2.1.79,11.1,11.1,0,0,0,1.52-.11c.42,0,.87,0,1,.35s-.26.53-.62.68a3.16,3.16,0,0,1-.57.15c-1.85.31-2.06.48-2.13,1.76A.72.72,0,0,1,258.19,83.15Z"/><path d="M264.3,73.54c.66.36,1.8.1,2.16.85a2.79,2.79,0,0,0-1.15,1.7c-.2,1.31-1.5,1.66-3.2,1a2.76,2.76,0,0,0-.42-1.45c-.09-.51-1.5-.72-.66-1.45.35-.56-1.16-1.08-.26-1.52.68-.33,1.33.46,2.12.53A11.31,11.31,0,0,1,264.3,73.54Z"/><path d="M253.62,69.14c1-.43,1.28-.08,1.18.59-.13.91.68,1.55,1.59,1.76.39.09,1.05,0,1.51.27,0,.11-.07.21-.08.32-.09.57.55,1.36-.54,1.64a3.83,3.83,0,0,1-3.12-.27c-.7-1.1-1.29-2.21-.38-3.41A.56.56,0,0,0,253.62,69.14Z"/><path d="M261,74.16c0,.59.49.83,1.18,1,.18,0,.44.13.21.3s-.38.07-.57.1a2.89,2.89,0,0,1-2.11-.14,1.88,1.88,0,0,0-1.64.08,1.63,1.63,0,0,1-.85,0,3.13,3.13,0,0,1-2.46-1.07.45.45,0,0,0,.11-.17c.19-.21.37-.5.74-.49,1.48,0,2.9-.57,4.41-.23A1.94,1.94,0,0,1,261,74.16Z"/><path d="M255.17,91.32c-.49-2,.41-4,1.15-5.9-.15-.25-.16-.44.32-.47,1-.19.51.35.61.61a5.07,5.07,0,0,1,.24.72,22.51,22.51,0,0,1,.1,3.67C257.69,91.25,256.19,91.07,255.17,91.32Z"/><path d="M257,86.08a.38.38,0,0,1,.22-.51c1-.31.4-1,.7-1.49.52,0,.68.25.87.5s.25.45.63.18.25-.41,0-.57c-.47-.26-1.15-.32-1.45-.75l.21-.29a1.06,1.06,0,0,0,1-.18.16.16,0,0,1,.28,0,1.41,1.41,0,0,1,1.18.76c.21.42.61.55,1.19.36,1,.62.21,1.17-.12,1.75C260.2,86.3,258.68,86.82,257,86.08Z"/><path d="M260.05,73.51a4.6,4.6,0,0,1-2.58.27,4.54,4.54,0,0,0-2.57.46l-1-.67a.4.4,0,0,1,.41-.27,4.45,4.45,0,0,0,2.21.24c.87,0,1.29-.17.71-.84s0-.81.68-.93C258.92,72.16,259.84,72.61,260.05,73.51Z"/><path d="M254.31,73.29l-.41.27a11.69,11.69,0,0,0-.87-1.48c-.91-1.12.6-1.94.6-2.94.93,0,.87.36.63.77A3.4,3.4,0,0,0,254.31,73.29Z"/><path d="M258,83.44a6.24,6.24,0,0,0,1,.18,1.44,1.44,0,0,1,1.46.78c.23.48-.52.54-.86.77s-.34.46-.84.48c-.44-.46-.12-1.16-.8-1.56C258,83.87,258,83.65,258,83.44Z"/><path d="M264.94,72.86l1.68.23a1.67,1.67,0,0,1-1.39.44C265.09,73.31,264.41,73.22,264.94,72.86Z"/><path d="M259.47,83h-.28c-.15-1.06.08-1.88,2-1.81a1.08,1.08,0,0,0,1.17-.65c-.89-.19-1.75.24-2.6,0-.42-.09-1.06-.12-.38-.57a2.27,2.27,0,0,1,.85-.22c.46-.07.91-.15.83-.61s-.51-.46-1-.36a1.46,1.46,0,0,1-.75,0c-.62-.24-1.36-.53-1.41-1s.84-.45,1.37-.56l.58-.13.39-.11c.63-.3,1.25-.9,1.94-.05,2.08.51,2.89.16,2.66-1.34-.17-1.07.84-.94,1.64-1.11l.5.5a1.4,1.4,0,0,0-.79,1.46c.16,1.74-1.14,3-2.75,4A4.4,4.4,0,0,1,261,81.58C260.48,81.59,259.28,82.11,259.47,83Z"/><path d="M248.41,100.12l.41-.37a1.7,1.7,0,0,1,1.87.28,1.64,1.64,0,0,1,.22,1.27,1.32,1.32,0,0,1-.86,1.09c-.71.28-1.07-.19-1.79-.56.67,1.08.91,2.08,2.17,2.68.43.42.88.83.51,1.4a1.16,1.16,0,0,1-.59.17c-1.06,0-2.34.33-2.5-.92a7.34,7.34,0,0,0-1.55-3l.35-.43C246.74,100.88,247.46,100.43,248.41,100.12Z"/><path d="M255.17,91.32a3.36,3.36,0,0,0,1.1-1.38c.7.15.17.67.6.9.05-.23.09-.44.14-.65a.77.77,0,0,1,.78.59,23.77,23.77,0,0,0,2.08,4.12,1.92,1.92,0,0,1,.27,1.29,1.73,1.73,0,0,1-.17.53c-.16.33-.11.78-.73.87a1.33,1.33,0,0,1-1.37-.68c-.81-1-1.88-1.89-2.2-3.06-.15-.31.24-.6,0-.91A2,2,0,0,1,255.17,91.32Z"/><path d="M298,122.75c-.32.32-.65.15-1,0-1.29,0-2.39-.57-3.67-.62a1.45,1.45,0,0,1-1.15-.82,10.66,10.66,0,0,0-2.68-2.78c-.9-.69-1.74-1.46-1.56-2.52.1-.62-.64-.76-1.15-1s-1.31-.49-.79-1.1,1.14-.36,1.77-.15,1.16.31,1.4.64c.9,1.31,2.41,1.83,4.31,2a4.88,4.88,0,0,1,2.51,1.33.58.58,0,0,1,0,.62c-.23.33-.74.31-1.15.46.39.39,1.1.49,1.49.87a4.39,4.39,0,0,1,.44.71c-.09.74.49,1.33.85,2Z"/><path d="M253.63,142.56,253.3,141c.74-.14,1.46-.26,1.26.6a.51.51,0,0,0-.3.51h0Z"/><path d="M254.25,142.14c1.11.39.55.66-.21,1.12.09-.51.15-.81.21-1.12Z"/><path d="M295.72,117.73c-1-.24-1.56-1-2.7-1.08-.59-.06-1-.48-1.72,0-.25.17-.63-.1-1-.4-.88-.76-1.29-1.86-2.84-2.2-.43-.09-.87-.41-1.2,0s.4.47.68.61c1,.47,2,.73,1.46,2-.27.61.87,1.44,1.7,2a6.66,6.66,0,0,1,2.43,2.57,1.52,1.52,0,0,0,1.52.84,6,6,0,0,1,2.91.84c-.27.22.05.45,0,.68-.09,0-.21.09-.28.06-1.51-.77-3.05-.34-4.59-.07l0,0a63.45,63.45,0,0,1-10.32-1c-3-.54-6.18-.8-9.27-1.17-.74-.09-1.46-.15-1.43-.86s.22-1.11,1.32-1c.44,0,.74-.12.65-.43s-.18-.94-1-1c-1.45-.08-1.5-.87-1.25-1.52s-.23-2,1.76-2a1.35,1.35,0,0,1,1.19-.57,12.41,12.41,0,0,0,3.15-.65,48.33,48.33,0,0,1,5.69-1.24c-2.64.28-5.31.34-7.94.67-.45-.05-.91-.06-1.36-.07-.7,0-1.37-.16-1.5-.72s.39-.94,1-1.09c2.6-.62,5-1.69,7.86-1.74,1.26,0,2.43-.47,2.72-1.59.19-.73,1-.91,1.94-1,1,1.12.9,2-.48,2.71a2.1,2.1,0,0,0-1.12,1.36c-.4.52-1.1.39-1.44.4a16.91,16.91,0,0,0,3.06-.27,1.52,1.52,0,0,1,1.13-.13c.57.12,1.22.23,1.42.69s-.53.58-.93.8c-.15.08-.23.23-.38.33a2.16,2.16,0,0,1-.88.12c.28,0,.56,0,.83,0a14.6,14.6,0,0,1,4.78,1.55c.33.15.66.33,1,.51a6.26,6.26,0,0,0,2.75,1,2.27,2.27,0,0,1,1,2A.54.54,0,0,1,295.72,117.73Z"/><path d="M277.14,113.55a31.5,31.5,0,0,1-4.59.85v-.21a2.35,2.35,0,0,0-.84-.2c-2-.15-2.19-.36-1.91-1.87.31-.36,1-.52.79-1.16-.16-.4.45-.59,1-.69s.91.14,1.27,0c-.46,0-1.24.29-1.18-.5,1.08-.61,2.44-.37,3.65-.65,2-.46,3.94-1,6-1.39-2,.39-4,1-6.06,1.38a6.41,6.41,0,0,1-3.37.11c-.77-.21-1.76-.17-2.08-1a59.74,59.74,0,0,0,13.75-2.83,2.21,2.21,0,0,1,1.88,1.16c-.9.34-1.66.68-1.61,1.61,0,.62-2.3,1.48-3.46,1.39-2-.16-3.63.68-5.43,1a7.63,7.63,0,0,1-1.34.37c-.72,0-1.41.34-1.38.82s.89.46,1.48.49c.35,0,.71,0,1.06,0-.08.65-.83.5-1.31.59C274.52,113.28,276,112.83,277.14,113.55Z"/><path d="M270.18,112.07c-.19,1-.09,1.76,1.69,1.74a.81.81,0,0,1,.68.38l-1.94.19c-.46,0-.75.2-.77.55-.16,2.44-1.18,4.76-1.81,7.13a2.35,2.35,0,0,0,0,.65c-1.34-.12-2.67.32-4,0l.28-.22a2.24,2.24,0,0,1,1.2-.41c.37-.05.73-.17.79-.43.29-1.27,1.36-2.41,1.18-3.75a9,9,0,0,0,1.81-5.35c0-.42-.06-1,.9-1A.38.38,0,0,1,270.18,112.07Z"/><path d="M292.11,123.43a8.86,8.86,0,0,0,1-.44c1.54-.95,2.69-.27,3.83.45.21.37.42.73.62,1.1a17.62,17.62,0,0,0-3.66-.88Z"/><path d="M257.29,146.75c.33,0,.5-.46.95-.21a2.3,2.3,0,0,1-1.87,1.55c-.51-.38-1-.12-1.49,0a20,20,0,0,0-6.18,3.25c-.14-.26-1.35-.38-.45-.73,1.47-.58,1.83-2,3.8-2.19-.47-.44-.94,0-1.25-.33a4.5,4.5,0,0,1,3.26-.64C255.27,147.58,256.5,147.64,257.29,146.75Z"/><path d="M254,145.9l1.15-.51c-.39.9-2,1.45-3.63,1.24C252.24,146.19,253.32,146.4,254,145.9Z"/><path d="M254.54,144.54a3.21,3.21,0,0,1-2.09.79,4.59,4.59,0,0,1,2.09-.79Z"/><path d="M250.87,132c.41.8.82,1.6,1.24,2.4-.07.27-.13.86-.63.32-1.35-1.47-3.1-2.86-2.73-4.85C250,130.31,250,131.43,250.87,132Z"/><path d="M257.24,124.51a17.6,17.6,0,0,0-4.81-.09c-.81,0-1.62.09-2.43.11-.28,0-.68,0-.74-.24s.3-.35.6-.38c2.44-.3,4.87-.68,7.33-.88a30.88,30.88,0,0,1,5.61-.22c-1.88.21-3.75.47-5.64.62a12.81,12.81,0,0,0-2.51.63,21.91,21.91,0,0,1,2.7.12C258,124.29,257.76,124.48,257.24,124.51Z"/><path d="M261,106.47c2,.35,3.64,1.42,5.93,1.48-.33.57-1.74.61-1.07,1.39s1.6.35,2.51.25c0,.86-.91,1.42-1,2.16s.13,1.41-1.18,1.6a1.29,1.29,0,0,0-1.82-.63.73.73,0,0,1-.89-.21,12.67,12.67,0,0,0-4-2.27h0c.65-.44.66-.46,1.41-.26a9.07,9.07,0,0,1,2.73,1.09c.1-.71-.61-.71-1-.9-1.1-.55-2.4-1-2.52-2.13C260.13,107.45,260.06,106.8,261,106.47Z"/><path d="M264.32,103.88a20.57,20.57,0,0,1,3.33,0c.52,0,.93.22.91.59,0,.57.56,1.2.07,1.68s-1.18,0-1.79,0a35.55,35.55,0,0,1-3.67-.42c-.41,0-1.24-.92-1.35.26,0,.22-1-.39-1.46.08-.2-.08-.33-.28-.63-.21a.36.36,0,0,1-.41,0,2.08,2.08,0,0,1,1.84-3.1A7.06,7.06,0,0,1,264.32,103.88Z"/><path d="M260,108.05a7.33,7.33,0,0,0,3.75,2.06c.37.06.87.32.53.62s.16.8-.35,1-.74-.24-1.08-.45a5.51,5.51,0,0,0-3.46-1C260.58,109.66,259.32,108.71,260,108.05Z"/><path d="M259.46,107.43c0-.31-.1-.62-.14-.93-.59,0-.71.42-1.3.46-.27-.45-.12-.92-.13-1.39.64-.08.93.45,1.48.25l.34,0C259.64,106.38,259.9,106.93,259.46,107.43Z"/><path d="M267.71,118.17c.78.13.36.49.26.76a14.59,14.59,0,0,0-1,2.67c-.19,1.23-1.59.93-2.69,1a24,24,0,0,0-5.64-.65c-.44,0-1.12,0-1.11-.35s.72-.29,1.11-.28c1.56,0,3.12.17,4.68.19.83,0,2,.19,1.74-.95-.07-.28.25-.25.5-.27.62-.06.82-.37.87-.77C266.28,118.73,266.75,118.33,267.71,118.17Z"/><path d="M267.71,118.17l-1.27,1.29c-.42-.1-1.2-.06-.52-.63a7.58,7.58,0,0,0,2.39-3.73c.4-.58-.18-1.09-.27-1.67a2.78,2.78,0,0,1-1,.53c-.49,0-.84-.21-.86-.61l1.18-1.6a4.49,4.49,0,0,0,2.73-1.08c.39.28.4.56,0,.85-.38,1.09-.17,2.23-.58,3.33A10.56,10.56,0,0,1,267.71,118.17Z"/><path d="M267,114l1.17-1.64a2.68,2.68,0,0,1,.11,2.77C268.46,114.39,268,114,267,114Z"/><path d="M284.18,102.55c0-.72,1.12-.09,1.39-.65a2.36,2.36,0,0,1-1.87-2c-.43-1.4-.91-2.8-1.37-4.19a1.23,1.23,0,0,0-.42-1.22c-.22-.16-.26-.44,0-.58a.65.65,0,0,1,.75.22,6.87,6.87,0,0,1,2,3.5l1,2.27a1.56,1.56,0,0,1,.67,2.19c-.41.25-.83.5-1.23.76C284.4,103.34,284.35,102.86,284.18,102.55Z"/><path d="M285.38,106.52c-.45-.4-1-.1-1.7-.1.57-.45.47-.8-.19-1.06l.35-.17c.78-.17.82-.86,1.51-1.1l.64.43c.87.26,1.18.75,1.13,1.39A4.3,4.3,0,0,0,288.4,107a1.32,1.32,0,0,1,1.3.6c1.12,1.26,2.42,2.42,3.63,3.64.43.59,1.31,1,1.25,1.78s-.82,1-1.78,1.07a13.31,13.31,0,0,1-2.31-.46,29.83,29.83,0,0,1-3.89-1.4c-.87-.51-.87-.52-.3-.63s.91.1,1.41-.28a6.2,6.2,0,0,0-2.33-.62,1.78,1.78,0,0,1-1.83-.21c-.56-.67-.26-1.28.63-1.5,1.28-.32,1.4-.91,1.21-1.7A3.32,3.32,0,0,1,285.38,106.52Z"/><path d="M261.25,103c-.23-.28-.61-.5-.62-.87-.22-.32.37-.88-.71-1-.37,0-.57-.61-.84-.94a3,3,0,0,1,.44-2.35c.28-.57-.15-1.17.17-1.74-.11-1-1-1.91-1.42-2.87s-.84-2-1.25-3a18.22,18.22,0,0,1,0-4.11c1.29-.24,2.8.35,3.92-.54l.54.32c.52.19.6.47.39.84,1.87.46,2.22,2.07,3.9,2.67,1.06.18,1.23.88,1.64,1.44,1.78,1.44,1.34,3.29,1.75,5,0,.62,0,1.41-.41,1.77-.79.65-.83,1.46-1.4,2.12v0A5.3,5.3,0,0,1,265,101c-.57.14-1.09.42-.7,1,0,.07,0,.19.06.21,2,.63.79,1.2-.07,1.77-.05.14-.26.36-.29.31C263.44,103.38,262,103.58,261.25,103Z"/><path d="M271.83,109.19c3.72-.25,7.18-1.29,10.79-1.9-3.52,1.16-7,2.37-11,2.52q-.12-.07-.09-.15s.05-.08.08-.08Z"/><path d="M271.63,109.57c0,.08,0,.15,0,.23.63.66,1.64,0,2.48.38a11,11,0,0,0-1.84.31c-.4.14-2-.25-.81.9.55.52-.73.54-1.28.68l-.09-.54c0-.28,0-.57,0-.85A1.24,1.24,0,0,1,271.63,109.57Z"/><path d="M285.36,104.09c-.43.41-.49,1.1-1.51,1.1C284.6,105,284.27,104,285.36,104.09Z"/><path d="M268.24,81.71l.59-.27-.27,6.82c-.13.13-.18.29-.29.42a2,2,0,0,1-2.7,0l-.55-1A20.51,20.51,0,0,0,267.2,83,2.4,2.4,0,0,1,268.24,81.71Z"/><path d="M268.24,81.71c-.68,1.54-.94,3.16-1.83,4.64-.3.5-.36,1.18-1.38,1.3a4.18,4.18,0,0,1,.68-3.06c.49-.94,1.09-1.85,1.64-2.78C267.63,81.73,267.86,81.39,268.24,81.71Z"/><path d="M265.57,88.7a3.45,3.45,0,0,0,2.68-.2c.59,1.58.36,2-1.17,2.41l-1.29-1.54C265.71,89.14,265.64,88.92,265.57,88.7Z"/><path d="M261.88,86.7a1.26,1.26,0,0,1-.39-.84c-.19-.62.58-1.15.35-1.78,1.05-.11,1.39.55,1.39,1C263.22,85.7,263.33,86.59,261.88,86.7Z"/><path d="M267.36,99.68c0-.11-.07-.23,0-.32.19-.49-.57-1.1.74-1.5a1.44,1.44,0,0,0,.52-2.08c.86-2.15,2.95-3.88,4-6l0-.2c1.69.22,1.88.52.85,1.43a6,6,0,0,0-1.27,1.86,13.41,13.41,0,0,1-2.57,3.33c-.38.36-.48.67-.2,1.1.43.67.75,1.34-.75,1.63C268.14,99,268.23,99.81,267.36,99.68Z"/><path d="M272.55,89.8c-.27,1.35-.51,2.68-2,3.71-.91.62-.95,1.66-1.94,2.28-.16-.85.12-1.74-.59-2.53-.4-.45.34-.69.54-1.05-1.16,0-1.69-.46-1.47-1.29a2.41,2.41,0,0,0,1.17-2.41l.32-.24c.13.35-.31,1.15,1,.42,1.86-1.07,2-1,2.44.69A.65.65,0,0,0,272.55,89.8Z"/><path d="M260.06,77.3c-.52.39-1.28,0-2,.36.87.32,1.27,1.46,2.55.44a.53.53,0,0,1,.67,0c.39.43.26,1,.6,1.47.09.13-.86.49-1.51.55-.26,0-.83-.34-.83.22,0,0,.13.11.2.16-1.2.33-1.58-.38-2.13-.87a2.14,2.14,0,0,0-.39-1.37c-.4-.55-.28-1.06.54-1.4A2.82,2.82,0,0,1,260.06,77.3Z"/><path d="M260.06,77.3a7,7,0,0,1-2.47-.25c-.25,0-.4-.21-.64-.24a8.85,8.85,0,0,0-.87-.16c-.56-.06-1-.2-.88-.68s.69-.35,1.15-.28a.91.91,0,0,0,.92-.22l.63-.16a7,7,0,0,1,2.35,1.09c.33.24.85.5.1.82Z"/><path d="M256.94,76.82c.46-.26.57,0,.64.24-.05.54-.39,1,.65,1.47.64.27-.48.72-.61,1.14a15.3,15.3,0,0,0-1.21-1.36C255.62,77.6,255.77,77.13,256.94,76.82Z"/><path d="M260.34,77.22c-.09-.72-1.06-.86-1.65-1.23-.33-.21-.74-.32-.8-.68a1.19,1.19,0,0,1,1.89-.3c.58.4,1.46.19,2.08.53s1.52.71.31,1.3C261.25,76.22,261,77.28,260.34,77.22Z"/><path d="M264.41,74.21c-.74.11-1.2.66-2,.51-.41-.07-.8-.15-.78-.54s.43-.44.85-.42A4.54,4.54,0,0,1,264.41,74.21Z"/><path d="M249.65,98.81a1.67,1.67,0,0,0,1.19.16.8.8,0,0,1,.46,0c.94.48.82.93-.1,1.34a.83.83,0,0,1-.66-.12l-1.7-.41C248.68,99.25,248.83,98.88,249.65,98.81Z"/><path d="M250.53,100.16l.62,0a3.58,3.58,0,0,1,1.78,0c.5.25.62.54.23.92a1.61,1.61,0,0,0-.4,1.74c-.42.4-1.11.32-1.67.44s-.61.39-.48.73a.66.66,0,0,1-.29.74c-1.79-.47-1.85-1.83-2.66-2.78-.23-.27.42-.65.88-.76s.45.27.5.49.13.54.57.56.52-.36.72-.59C250.75,101.15,250.13,100.62,250.53,100.16Z"/><path d="M251.18,99.08l-.35-.11c-.17-.16-.47-.27-.15-.54,1.8-1.55,3.58-3.12,5.37-4.69.41,1.08,1.52,1.9,2.07,2.93,0,.37-.22.64-.52.91a1.58,1.58,0,0,1-1.72,1.1c-1,0-.93.5-.7,1-.56.52-1.31.33-2,.29S252,99.24,251.18,99.08Z"/><path d="M295.76,118.38a2.55,2.55,0,0,0,.24,1.32,6.76,6.76,0,0,1-2.7-1.32Z"/><path d="M277.14,113.55c-2.71,0-4.54-.3-5.63-.92,1-.45,2.25.14,3.18-.41a59.38,59.38,0,0,1,9.45-.45C281.71,112.21,279.54,113.1,277.14,113.55Z"/><path d="M286.61,112.22l4,1.1c.47.29,1.13.36,1.56.68s1,.55,0,.82a15.27,15.27,0,0,0-7.7-2.21C285.12,112.07,285.91,112.28,286.61,112.22Z"/><path d="M292.13,114.82c.34-1-1.23-.9-1.56-1.49l2.11.46a3.6,3.6,0,0,1,2.2,1.31v.43C293.63,116,293,115.25,292.13,114.82Z"/><path d="M283.55,110.47l1.83.21.95.64c-2.15-.35-4,0-5.88-.4C281.4,110.49,282.59,110.88,283.55,110.47Z"/><path d="M294.88,115.09a6.67,6.67,0,0,1-2.2-1.31c.85,0,1.41-.27,1.56-.9C295.18,113.5,294.91,114.31,294.88,115.09Z"/><path d="M253.18,100l-.2.37c-.63,0-1.32.11-1.83-.29.46-.34.57-.68,0-1a2.27,2.27,0,0,1,1.9.59C253.2,99.78,253.37,99.88,253.18,100Z"/><path d="M252.68,102.76l.6.5c-.13.2-.35.51-.62.34-1-.6-1.66-.07-2.41.23-.49-.48-.47-.63.25-.82A7.85,7.85,0,0,1,252.68,102.76Z"/><path d="M252.67,104.15a.63.63,0,0,1-.25,1,4.27,4.27,0,0,1-.47-.67C251.65,103.84,252.13,104,252.67,104.15Z"/><path class="cls-4" d="M352,135.85l1.17.41C426.38,162.42,270,216.85,270,216.85l156-53"/><path class="cls-5" d="M74.16,140.47l-1.17.41C-.2,167,156.16,221.47,156.16,221.47l-156-53"/><path class="cls-6" d="M183.16,81.47,182,81.06C108.8,54.9,265.16.47,265.16.47l-156,53"/><rect class="cls-7" x="207.65" y="194.35" width="245.87" height="57.79"/><text class="cls-8" transform="translate(209.06 233.49)"><tspan class="cls-9">F</tspan><tspan x="26.39" y="0">itness in Pink</tspan></text><text class="cls-10" transform="translate(209.06 233.49)"><tspan class="cls-9">F</tspan><tspan x="26.39" y="0">itness in Pink</tspan></text></g></g></svg>